<svg xmlns="http://www.w3.org/2000/svg" xmlns:xlink="http://www.w3.org/1999/xlink" viewBox="0 0 1295.69 259.6"><defs><style>.cls-1{opacity:0.04;}.cls-2{fill:#fff;}.cls-3{fill:#f2fbf7;}.cls-4{fill:url(#linear-gradient);}.cls-5{fill:url(#linear-gradient-2);}.cls-6{fill:url(#linear-gradient-3);}.cls-7{fill:url(#linear-gradient-4);}.cls-8{fill:url(#linear-gradient-5);}</style><linearGradient id="linear-gradient" x1="631.14" y1="84.88" x2="631.14" y2="174.78" gradientUnits="userSpaceOnUse"><stop offset="0" stop-color="#daffcd"/><stop offset="1" stop-color="#3ef3bc"/></linearGradient><linearGradient id="linear-gradient-2" x1="557.09" y1="84.87" x2="557.09" y2="174.73" xlink:href="#linear-gradient"/><linearGradient id="linear-gradient-3" x1="500.72" y1="84.88" x2="500.72" y2="174.74" xlink:href="#linear-gradient"/><linearGradient id="linear-gradient-4" x1="377.16" y1="84.88" x2="377.16" y2="174.74" xlink:href="#linear-gradient"/><linearGradient id="linear-gradient-5" x1="307.46" y1="84.9" x2="307.46" y2="174.76" xlink:href="#linear-gradient"/></defs><g id="Layer_2" data-name="Layer 2"><g id="Layer_1-2" data-name="Layer 1"><g class="cls-1"><path class="cls-2" d="M19.44,259.6a9.8,9.8,0,0,1-5.31-6q-1.17-3.9-1.37-15.23t4.52-18.61a49.19,49.19,0,0,1,11.3-12.36,71.33,71.33,0,0,0,13-13.54q6.39-8.46,10.32-13.8T66,155q-13.56-12.49-17.48-19c-2.63-4.34-3.93-7.89-3.93-10.67s-1-6.77-3-12l-3.14,5.21Q31,127.89,27.89,132.44a15,15,0,0,1-7.27,6q-4.12,1.44-8.06-1.95t-8.84-7.68A10.19,10.19,0,0,1,.38,118,141.06,141.06,0,0,1,4.7,103.8q2.76-7.68,6-17.7t8.05-23.82q4.82-13.8,8.94-26.81t8-19.79Q39.48,8.91,49,8.92T60.7,13.73q2.16,4.83,2.16,13.93A71.83,71.83,0,0,1,59.52,48,46,46,0,0,0,77.59,59.42,67.33,67.33,0,0,1,96.75,69.57q9.52,7,18.17,13.8,1.77,5.2,0,19.65a99.69,99.69,0,0,1-5.69,24.34q-3.95,9.9-8.26,20.57a200.23,200.23,0,0,1-9.23,19.78q-4.92,9.12-12.18,24.6T50.28,238.25q-12,14.33-15.61,16.4a51.73,51.73,0,0,1-7.47,3.52A22.09,22.09,0,0,1,19.44,259.6ZM77,117.47l2.56-16.14A22.79,22.79,0,0,0,70,93.52c-3.47-1.39-7.14-2.77-11-4.17s-7.57-2.6-11.1-3.64a206.7,206.7,0,0,0-5.5,24.47,33.84,33.84,0,0,1,14.73,7.29q6.48,5.46,18.08,7.55ZM97,64.36q-6.87-7.8-9-24t9.43-17.7q10.8-1,10.9,14.84t-.59,21Q107.06,63.58,97,64.36Zm24.17-1.3a24.56,24.56,0,0,1-6.78-13.92q-1.08-7.95-2.75-17.58T112.37,17q5.1-4.17,9.23-4.17a29.13,29.13,0,0,1,7.17.78q3,.78,3,4.82t.78,18.09q.79,14.06-.88,20T121.21,63.06Z"/><path class="cls-2" d="M222.59,239.3q-20.43,1.29-30.45-.14t-28.49-.91q-14.73-.25-17.39-.91t-4.42-3.9a29.14,29.14,0,0,0-4.32-6Q135,224.72,135,214t3.74-14.83q3.72-4.17,7-7.68a14.12,14.12,0,0,1,6.88-4.43q3.63-.9,39.19-.91,32.82-1.31,43.62,1.82,21.22,0,26,12.5t4.81,22.91q0,10.41-3.24,14.7T222.59,239.3ZM202.16,83.11q-21.22-2.61-27.71-4.69a128.79,128.79,0,0,0-13.36-3.51q-6.87-1.44-9.52-4.82c-1.77-2.25-2.66-6-2.66-11.19s.69-9.07,2.07-11.59a10.57,10.57,0,0,1,7-5.07q4.91-1.31,11.79-2.61t22.4-2.08q15.51-.78,18.66.65t11,2.08a39.64,39.64,0,0,1,12.77,2.87,97.07,97.07,0,0,1,9.73,5.07q4.81,2.88,6.38,6.25a58.26,58.26,0,0,1,3.25,11.19q1.66,7.82-2.66,11.33a25.61,25.61,0,0,1-9.72,4.94,41.14,41.14,0,0,1-10.61,1.44Q225.74,83.37,202.16,83.11Z"/><path class="cls-2" d="M305.3,257.52a51,51,0,0,1-10.71-4.43q-5.2-2.86-7-10.67t6.29-26.29q9.61-10.41,21.51-10.42a204.57,204.57,0,0,0,23.28-1.3q-3.54-38.26-4.42-67.16t-2.65-58.57q-8.06,0-19.45-.65a42.79,42.79,0,0,1-22-7.94c-1.17-4.86-2.16-9.63-2.94-14.32s0-9.8,2.35-15.36a137.87,137.87,0,0,1,51.77-23.29,222.54,222.54,0,0,1,58.06-4.3Q412.18,20.64,413,35.73a87.78,87.78,0,0,1-3.54,29.68q-10,10.66-20.92,11.32t-21.52,2a591.93,591.93,0,0,1-3.53,64.82q-3.54,32-6.09,60.91,44.2,3.66,52.45,6.12t9.63,6.12q1.37,3.65.2,28.89a37.43,37.43,0,0,1-16.11,8.2Q394.3,256,305.3,257.52Z"/><path class="cls-2" d="M461.1,246.58q-15.53-4.16-18.07-8.85t3.14-10.8q5.7-6.1,10.31-19.65t9.14-24.34q4.51-10.8,10.12-41.78A317.45,317.45,0,0,0,481,81.41q-.29-28.75.3-45.55t5.79-16.79q5.21,0,12.58,3.12T511.1,35.34q4,10,5.9,16t-.5,24.34Q514.15,94,508.35,124.5t-10.41,61.82Q493.32,217.7,487,230.71t-8,14.44Q477.21,246.58,461.1,246.58ZM535,254.13q-8.06-6-10.9-13.53t-2.85-27.21q0-19.65.39-32t5.7-62.22q5.31-49.84,5.21-69.5t1.77-24.34q1.86-4.69,4.81-6.25a13.23,13.23,0,0,1,6.29-1.56q3.33,0,8,5.33a30.34,30.34,0,0,1,6.39,11.46q1.77,6.12,1.77,24.6t-1.77,25.25q-1.77,6.76-4.13,21.34T551,133.74q-2.26,13.66-2.85,21.34t-.59,29.81q0,22.13,2.35,31.24,4.53-4.42,9.24-8.85a32.24,32.24,0,0,0,7.46-10.68q2.76-6.24,6.88-17.83t13.95-15.49c3.4-.34,5.5.74,6.29,3.26A28.49,28.49,0,0,1,594.9,175q0,4.68.59,17.31t-.69,17.44q-1.29,4.81-9.24,12.49A115.83,115.83,0,0,0,573.09,236q-4.53,6.12-14.15,13.54T535,254.13Z"/><path class="cls-2" d="M707.56,230.25q-20.43,1.31-30.45-.13t-28.49-.91q-14.73-.26-17.39-.91a7.15,7.15,0,0,1-4.42-3.91,29.35,29.35,0,0,0-4.32-6q-2.55-2.73-2.55-13.41t3.73-14.84q3.74-4.16,7-7.68a14.16,14.16,0,0,1,6.88-4.42q3.63-.92,39.2-.91,32.81-1.31,43.61,1.82,21.23,0,26,12.5t4.82,22.9q0,10.42-3.25,14.71T707.56,230.25ZM687.13,74.06q-21.23-2.59-27.7-4.68a132.78,132.78,0,0,0-13.36-3.52q-6.89-1.42-9.53-4.81t-2.65-11.2q0-7.8,2.06-11.58a10.58,10.58,0,0,1,7-5.08c3.28-.86,7.2-1.73,11.79-2.6s12-1.56,22.4-2.08,16.57-.3,18.66.65,5.76,1.65,11,2.08a39.79,39.79,0,0,1,12.78,2.86,98.13,98.13,0,0,1,9.72,5.08q4.82,2.87,6.39,6.25a59.16,59.16,0,0,1,3.24,11.19q1.67,7.82-2.65,11.33a25.72,25.72,0,0,1-9.73,4.94,41.07,41.07,0,0,1-10.61,1.43Q710.71,74.32,687.13,74.06Z"/><path class="cls-2" d="M790.67,249q-9.43-2.6-7.67-12.75a54.56,54.56,0,0,1,6.88-18.74,160,160,0,0,1,11.4-16.66q6.29-8.07,13.65-18.36a186.8,186.8,0,0,0,14.34-23.95q7-13.67,13.76-28t9.62-21.34q2.85-7,.89-21.61Q843.72,78.22,819,68.86,813.46,73,807,89.29t-15.71,26.94h-4.13q-15.14-6-15.72-13.53a27.21,27.21,0,0,1,3-14.58q3.54-7,8.74-23.69t9.14-32.54Q796.17,16,799.51,8.46T810.9,5Q819,9,825.25,27.21a111.77,111.77,0,0,0,18.17,6.5q9.72,2.61,19.55,4.69t13.95,5.73q4.13,3.65,6.68,11.19a199.37,199.37,0,0,1-.89,31.11Q881,102.18,872.3,131.07a364.2,364.2,0,0,1-21.81,55.45q-13.07,26.55-25.83,52.32Q814.43,248.22,790.67,249Z"/><path class="cls-2" d="M914.64,190.16a38.08,38.08,0,0,1-8.84-17.44,68.63,68.63,0,0,1-.59-20.3,185.11,185.11,0,0,1,3.34-21Q910.71,121.7,916,105A212.26,212.26,0,0,1,929.47,72.5q8.14-15.87,10.41-24.86t6.59-13.8q4.32-4.82,8.15-5.33t7.56,3.12a33.24,33.24,0,0,1,5.9,7.55q2.16,3.9,1,12.24a135,135,0,0,1-3.83,17.7q-2.65,9.36-9.14,28t-11.88,38.27Q938.8,155,933.79,174.93T914.64,190.16Zm95.09,42.7q-5.9-19.28-7.57-28.77t-2.75-45.69q-1.08-36.18-6.28-59a240.84,240.84,0,0,1-5.9-47.11q-.69-24.34,4.32-30.72a15.3,15.3,0,0,1,13.17-6.12q8.14.27,10.9,11.2t8.16,32.53q5.4,21.61,9,44.78t6.78,45.55q1.19,13.55,3,36.19t2.26,33.71q.48,11.06-1.28,14.45t-6.68,5.46a34.32,34.32,0,0,1-12.67,2.22Q1016.4,241.7,1009.73,232.86ZM1033.5,58.7q-5.31-2.34-8-12.1A100.5,100.5,0,0,1,1022.11,24q-.6-12.88,4.51-15c3.41-1.38,6.42-.26,9,3.39s4.42,9.67,5.4,18.09,1.18,14.36.59,17.83S1038.34,55.23,1033.5,58.7Zm22.59-15.09q-7.46-5.73-9.52-10.81t-3.34-16q-1.29-10.93.29-13.79T1050,0q4.92-.12,6.68,4.69T1060.22,24Q1062,38.39,1056.09,43.61Z"/><path class="cls-2" d="M1092.24,249q-9.42-2.6-7.66-12.75a54.56,54.56,0,0,1,6.88-18.74,159.93,159.93,0,0,1,11.39-16.66q6.29-8.07,13.66-18.36a186.8,186.8,0,0,0,14.34-23.95q7-13.67,13.75-28t9.63-21.34q2.85-7,.88-21.61-9.83-9.37-34.57-18.74-5.51,4.15-12,20.43t-15.72,26.94h-4.12q-15.14-6-15.72-13.53a27.21,27.21,0,0,1,3-14.58q3.52-7,8.74-23.69t9.14-32.54q3.92-15.87,7.27-23.43T1112.48,5q8.05,4,14.34,22.26a112.23,112.23,0,0,0,18.18,6.5q9.72,2.61,19.54,4.69t14,5.73q4.13,3.65,6.68,11.19a198.13,198.13,0,0,1-.88,31.11q-1.66,15.75-10.41,44.64a364.2,364.2,0,0,1-21.81,55.45q-13.07,26.55-25.84,52.32Q1116,248.22,1092.24,249Z"/><path class="cls-2" d="M1213.86,249.51q-6.3-4.15-7.27-7.54t1.08-17.84q2.05-14.44.88-108.42l-1-19.52q-2.35-71.07-3.44-80.7t5.41-14.32q9.81-1,15,.26a51.08,51.08,0,0,1,12.27,5.34,20.52,20.52,0,0,1,9.63,11.58q2.74,41.65,0,64a184.14,184.14,0,0,0,13.16,19.14q7.08,9,19.55,23.81t15,27.08q2.55,12.24.69,16.27t-9.92,9q-8.06,5-15.72,0-3.13-3.12-9.43-13.54a47.25,47.25,0,0,0-17.09-16.66q.39,37.49,0,64.56t-1.48,31.89q-1.08,4.82-8.15,6.11Z"/></g><path class="cls-3" d="M797.12,84.71H731.48A4.92,4.92,0,0,0,728,86.15l-31.11,31.12a4.91,4.91,0,0,0-1.44,3.47v11a4.92,4.92,0,0,0,1.44,3.48l38.25,38.25a4.91,4.91,0,0,0,3.47,1.44h58.66a4.91,4.91,0,0,0,4.91-4.92v-.85a4.87,4.87,0,0,0-1.44-3.47l-13.19-13.2a4.92,4.92,0,0,0-3.48-1.44H755.5a4.88,4.88,0,0,1-3.48-1.44l-20.45-20.45a4.91,4.91,0,0,1,0-7l13-13a4.87,4.87,0,0,1,3.47-1.44h36.54a4.91,4.91,0,0,0,3.47-1.44l12.52-12.52A4.93,4.93,0,0,0,802,90.45l0-.67A4.92,4.92,0,0,0,797.12,84.71Z"/><path class="cls-3" d="M884.71,174.89H826.57a4.44,4.44,0,0,1-3.16-1.31l-38.93-38.92a4.48,4.48,0,0,1-1.31-3.17v-4.24a4.46,4.46,0,0,1,1.31-3.16l38-38a4.48,4.48,0,0,1,3.17-1.31h95.17A4.48,4.48,0,0,1,924,86.07l79,79a4.5,4.5,0,0,1,1.31,3.16v1.94a4.48,4.48,0,0,1-4.48,4.47H973.68a4.47,4.47,0,0,1-3.16-1.31l-62.63-62.63a4.47,4.47,0,0,0-3.16-1.31H842.2a4.44,4.44,0,0,0-3.16,1.31l-16,16a4.48,4.48,0,0,0,0,6.32l15.6,15.6a4.47,4.47,0,0,0,3.16,1.31h29.33a4.46,4.46,0,0,1,3.16,1.31l13.54,13.54a4.51,4.51,0,0,1,1.31,3.1l0,2.52A4.46,4.46,0,0,1,884.71,174.89Z"/><path class="cls-3" d="M886,122.13v26.33a4.73,4.73,0,0,0,1.39,3.35l21.46,21.47a4.75,4.75,0,0,0,3.36,1.39h26.31a4.75,4.75,0,0,0,4.74-4.75v-2.37a4.75,4.75,0,0,0-1.39-3.36l-21.33-21.33a4.75,4.75,0,0,1-1.39-3.35V135.4A4.75,4.75,0,0,0,917.8,132l-13.2-13.2a4.77,4.77,0,0,0-3.33-1.39l-10.46-.06A4.74,4.74,0,0,0,886,122.13Z"/><path class="cls-3" d="M948.27,84.76H974.8A4.55,4.55,0,0,1,978,86.1l78.79,78.78a4.57,4.57,0,0,1,1.34,3.24v1.93a4.57,4.57,0,0,1-4.57,4.57h-26.78a4.53,4.53,0,0,1-3.23-1.34L945,94.73a4.51,4.51,0,0,1-1.34-3.25V89.3A4.56,4.56,0,0,1,948.27,84.76Z"/><path class="cls-4" d="M703.86,94l-14.15,14.16a4.6,4.6,0,0,1-3.23,1.35h-31l-8,8h18.12a4.5,4.5,0,0,1,3.22,1.33l1.38,1.37a4.59,4.59,0,0,1,0,6.47L656.07,140.9a4.59,4.59,0,0,1-3.22,1.33h-30L615,150.12h68.67a4.5,4.5,0,0,1,3.22,1.33l1.38,1.37a4.59,4.59,0,0,1,0,6.47l-14.16,14.16a4.55,4.55,0,0,1-3.22,1.33h-86.3c-.2,0-.4,0-.61,0H561.66a4.59,4.59,0,0,1-4.58-4.58v-1.94a4.58,4.58,0,0,1,1.36-3.22l78.79-78.79a4.5,4.5,0,0,1,3.22-1.33h58.82a4.53,4.53,0,0,1,3.22,1.33l1.37,1.37A4.54,4.54,0,0,1,703.86,94Z"/><path class="cls-3" d="M719.28,172.68l-1.07,1.09a3.19,3.19,0,0,1-2.29,1h-23a3.19,3.19,0,0,1-2.29-1l-1.09-1.09a3.23,3.23,0,0,1,0-4.55l9.86-9.86a3.27,3.27,0,0,1,2.28-1h5.45a3.29,3.29,0,0,1,2.29,1l9.86,9.86A3.21,3.21,0,0,1,719.28,172.68Z"/><path class="cls-5" d="M609.75,84.87H583.21A4.56,4.56,0,0,0,580,86.21L501.19,165a4.57,4.57,0,0,0-1.34,3.23v1.93a4.57,4.57,0,0,0,4.57,4.57h26.79a4.56,4.56,0,0,0,3.23-1.34L613,94.84a4.55,4.55,0,0,0,1.34-3.25V89.41A4.58,4.58,0,0,0,609.75,84.87Z"/><path class="cls-3" d="M443.82,171.85a3.91,3.91,0,0,1-.31-1.35A5.53,5.53,0,0,0,443.82,171.85Z"/><path class="cls-6" d="M558,89.45v2.12a4.55,4.55,0,0,1-1.33,3.29l-78.54,78.52a4.61,4.61,0,0,1-3.25,1.36H448.11a.83.83,0,0,1-.27,0,1.51,1.51,0,0,1-.3,0,4.49,4.49,0,0,1-3-1.65,3.94,3.94,0,0,1-.73-1.19,5.53,5.53,0,0,1-.31-1.35,3.85,3.85,0,0,1,0-.48V89.57a4.53,4.53,0,0,1,4.35-4.69h21.59a4.51,4.51,0,0,1,4.35,4.69v46.48l49.83-49.84a4.66,4.66,0,0,1,3.26-1.33h26.49A4.59,4.59,0,0,1,558,89.45Z"/><path class="cls-3" d="M447.54,174.69a4.08,4.08,0,0,1-3-1.65A4.49,4.49,0,0,0,447.54,174.69Z"/><path class="cls-7" d="M434.4,89.57v80.57a5.1,5.1,0,0,1-.34,1.71,3.11,3.11,0,0,1-.25.52l-.2.34a4.64,4.64,0,0,1-2.88,1.94,3.91,3.91,0,0,1-.68.06.72.72,0,0,1-.25,0H403.07a4.61,4.61,0,0,1-3.25-1.36L321.28,94.86a4.71,4.71,0,0,1-1.36-3.29l0-2.12a4.58,4.58,0,0,1,4.6-4.57H351a4.58,4.58,0,0,1,3.25,1.33l49.82,49.84V109.54h-5.68c-2.32,0-4.21-1.6-4.21-3.54V88.42c0-2,1.89-3.54,4.21-3.54h31.77a1.83,1.83,0,0,1,.33,0A4.57,4.57,0,0,1,434.4,89.57Z"/><path class="cls-3" d="M434.4,170.14a4.21,4.21,0,0,1-.34,1.71A5.1,5.1,0,0,0,434.4,170.14Z"/><path class="cls-3" d="M433.61,172.71a4.18,4.18,0,0,1-2.88,1.94A4.64,4.64,0,0,0,433.61,172.71Z"/><path class="cls-8" d="M377.39,168l0,2.16a4.59,4.59,0,0,1-4.58,4.56H246.12a4.56,4.56,0,0,1-3.25-1.35l-1.35-1.36a4.53,4.53,0,0,1,0-6.47l18.93-18.93a4.54,4.54,0,0,1,3.23-1.33h51.26l-31-31H267.8v12.58a4.52,4.52,0,0,1-4.35,4.69H241.88a4.52,4.52,0,0,1-4.35-4.69V91.55a2,2,0,0,1,0-.36,4.52,4.52,0,0,1,1.28-3.41l1.54-1.53a4.5,4.5,0,0,1,3.24-1.35h50.64a4.56,4.56,0,0,1,3.24,1.33L376,164.77A4.73,4.73,0,0,1,377.39,168Z"/></g></g></svg>