<svg xmlns="http://www.w3.org/2000/svg" xmlns:xlink="http://www.w3.org/1999/xlink" viewBox="0 0 1136.27 163.32"><defs><style>.cls-1{opacity:0.04;}.cls-2{fill:#fff;}.cls-3{fill:url(#linear-gradient);}.cls-4{fill:url(#linear-gradient-2);}.cls-5{fill:url(#linear-gradient-3);}.cls-6{fill:url(#linear-gradient-4);}.cls-7{fill:#f2fbf7;}.cls-8{fill:url(#linear-gradient-5);}</style><linearGradient id="linear-gradient" x1="675.52" y1="126.44" x2="675.52" y2="36.26" gradientUnits="userSpaceOnUse"><stop offset="0" stop-color="#daffcd"/><stop offset="1" stop-color="#3ef3bc"/></linearGradient><linearGradient id="linear-gradient-2" x1="820.43" y1="126.44" x2="820.43" y2="36.31" xlink:href="#linear-gradient"/><linearGradient id="linear-gradient-3" x1="841.37" y1="126.21" x2="841.37" y2="68.94" xlink:href="#linear-gradient"/><linearGradient id="linear-gradient-4" x1="927.62" y1="126.17" x2="927.62" y2="36.31" xlink:href="#linear-gradient"/><linearGradient id="linear-gradient-5" x1="631.11" y1="126.28" x2="631.11" y2="108.87" xlink:href="#linear-gradient"/></defs><g id="Layer_2" data-name="Layer 2"><g id="Layer_1-2" data-name="Layer 1"><g class="cls-1"><path class="cls-2" d="M17.05,163.32c-2.41-.87-4-2.13-4.65-3.77s-1.1-4.83-1.21-9.58a16.21,16.21,0,0,1,4-11.71,38.13,38.13,0,0,1,9.91-7.78A55.4,55.4,0,0,0,36.43,122q5.59-5.32,9-8.68t12.4-15.81Q46,89.62,42.55,85.53T39.1,78.81q0-2.61-2.58-7.53l-2.76,3.28q-6.55,5.89-9.3,8.76a13.17,13.17,0,0,1-6.38,3.77A8.89,8.89,0,0,1,11,85.86Q7.57,83.73,3.26,81T.33,74.23a71.35,71.35,0,0,1,3.8-8.93c1.6-3.22,3.36-6.93,5.25-11.13s4.25-9.2,7.06-15,5.43-11.41,7.84-16.87a59.83,59.83,0,0,1,7-12.44Q34.62,5.61,43,5.61t10.25,3q1.89,3,1.89,8.76A33.74,33.74,0,0,1,52.2,30.18a44.84,44.84,0,0,0,15.85,7.2,69.86,69.86,0,0,1,16.8,6.39q8.36,4.42,15.93,8.68,1.56,3.27,0,12.36a48.48,48.48,0,0,1-5,15.32q-3.45,6.23-7.24,12.93a114.11,114.11,0,0,1-8.1,12.45Q76.15,111.24,69.77,121T44.1,149.89q-10.51,9-13.7,10.32a54.79,54.79,0,0,1-6.55,2.21A26.19,26.19,0,0,1,17.05,163.32ZM67.53,73.9l2.24-10.15a20.08,20.08,0,0,0-8.36-4.91q-4.56-1.32-9.64-2.63T42,53.92a99.23,99.23,0,0,0-4.82,15.4A35.38,35.38,0,0,1,50.13,73.9Q55.82,77.33,66,78.65ZM85.1,40.49q-6-4.91-7.92-15.06t8.27-11.14q9.47-.66,9.56,9.33t-.52,13.19Q93.89,40,85.1,40.49Zm21.2-.82q-5-3.77-6-8.76t-2.41-11c-1-4-.77-7.1.6-9.17a16.38,16.38,0,0,1,8.1-2.62,35,35,0,0,1,6.29.49,2.84,2.84,0,0,1,2.67,3q0,2.54.69,11.38t-.78,12.61Q114.06,39.35,106.3,39.67Z"/><path class="cls-2" d="M195.2,150.55q-17.91.81-26.7-.09a218.68,218.68,0,0,0-25-.57q-12.91-.16-15.24-.57a6.09,6.09,0,0,1-3.88-2.46,20.2,20.2,0,0,0-3.79-3.77c-1.5-1.14-2.24-4-2.24-8.43s1.09-7.59,3.27-9.33,4.22-3.36,6.12-4.84a13.67,13.67,0,0,1,6-2.78q3.18-.57,34.37-.57,28.77-.83,38.25,1.14,18.61,0,22.83,7.86t4.22,14.42q0,6.54-2.84,9.25T195.2,150.55ZM177.28,52.28q-18.6-1.64-24.29-2.94t-11.72-2.21q-6-.9-8.35-3t-2.33-7.05c0-3.27.61-5.7,1.81-7.28s3.25-2.65,6.12-3.2,6.31-1.09,10.34-1.64,10.56-1,19.64-1.31,14.53-.18,16.37.41a42.76,42.76,0,0,0,9.64,1.31,46.4,46.4,0,0,1,11.2,1.81c2.87.92,5.72,2,8.53,3.19s4.68,2.51,5.6,3.93a29,29,0,0,1,2.84,7q1.47,4.92-2.32,7.13a26.77,26.77,0,0,1-8.53,3.11,49.79,49.79,0,0,1-9.3.9Q198,52.45,177.28,52.28Z"/><path class="cls-2" d="M267.74,162a55.37,55.37,0,0,1-9.39-2.78,10.1,10.1,0,0,1-6.12-6.72q-1.54-4.9,5.52-16.54a30,30,0,0,1,18.86-6.55q10.42,0,20.42-.82-3.11-24.07-3.88-42.25T290.83,49.5q-7.06,0-17.06-.41a47.72,47.72,0,0,1-19.3-5q-1.54-4.59-2.58-9T254,25.43a147.58,147.58,0,0,1,45.4-14.66,269.8,269.8,0,0,1,50.91-2.7q11.19,4.9,11.89,14.41a40.83,40.83,0,0,1-3.1,18.67q-8.79,6.72-18.35,7.12T321.84,49.5a267.27,267.27,0,0,1-3.1,40.78q-3.11,20.14-5.34,38.32,38.76,2.29,46,3.85t8.44,3.85q1.21,2.3.17,18.18a38.86,38.86,0,0,1-14.12,5.16Q345.79,161,267.74,162Z"/><path class="cls-2" d="M404.37,155.13q-13.62-2.62-15.85-5.57t2.76-6.79q5-3.86,9-12.37t8-15.31q4-6.8,8.88-26.29a145.31,145.31,0,0,0,4.65-37.58q-.25-18.09.26-28.66T427.2,12a39,39,0,0,1,11,2,16.83,16.83,0,0,1,10,8.27q3.52,6.32,5.17,10.07T453,47.62q-2.07,11.54-7.15,30.7t-9.13,38.9q-4.05,19.74-9.57,27.92t-7.06,9.09Q418.49,155.13,404.37,155.13Zm64.78,4.75q-7.06-3.76-9.56-8.51t-2.5-17.12q0-12.36.35-20.14t5-39.14Q467.1,43.61,467,31.24t1.55-15.31A8.18,8.18,0,0,1,472.77,12a15.26,15.26,0,0,1,5.51-1c2,0,4.28,1.12,7,3.36a18.48,18.48,0,0,1,5.6,7.21q1.56,3.84,1.55,15.47t-1.55,15.89a121.93,121.93,0,0,0-3.62,13.43c-1.37,6.11-2.73,12-4,17.77a118.58,118.58,0,0,0-2.5,13.43q-.52,4.83-.52,18.75T482.25,136q4-2.78,8.1-5.57a21.86,21.86,0,0,0,6.54-6.71q2.42-3.93,6-11.22t12.24-9.74q4.47-.33,5.51,2a13.23,13.23,0,0,1,1,5.33c0,2,.18,5.59.52,10.89s.14,9-.6,11-3.45,4.64-8.1,7.86a87.91,87.91,0,0,0-10.94,8.68q-4,3.84-12.41,8.52T469.15,159.88Z"/><path class="cls-2" d="M620.51,144.86q-17.93.81-26.71-.09a218.57,218.57,0,0,0-25-.57q-12.93-.16-15.25-.57a6.11,6.11,0,0,1-3.88-2.46,20.2,20.2,0,0,0-3.79-3.77q-2.24-1.71-2.24-8.43c0-4.47,1.09-7.59,3.28-9.33s4.22-3.36,6.11-4.84a13.77,13.77,0,0,1,6-2.78q3.2-.57,34.38-.57,28.77-.83,38.25,1.14,18.6,0,22.82,7.87t4.23,14.41q0,6.54-2.85,9.25T620.51,144.86ZM602.59,46.59Q584,45,578.29,43.65t-11.71-2.21q-6-.9-8.36-3t-2.32-7q0-4.91,1.8-7.28c1.21-1.59,3.25-2.65,6.12-3.2s6.32-1.09,10.34-1.63,10.57-1,19.64-1.32,14.53-.18,16.37.41a42.87,42.87,0,0,0,9.65,1.31A46.58,46.58,0,0,1,631,21.46c2.87.92,5.71,2,8.53,3.19s4.67,2.51,5.59,3.93a29.35,29.35,0,0,1,2.85,7q1.46,4.92-2.33,7.13a26.77,26.77,0,0,1-8.53,3.11,49.79,49.79,0,0,1-9.3.9Q623.25,46.76,602.59,46.59Z"/><path class="cls-2" d="M693.39,156.65q-8.28-1.64-6.72-8a29.08,29.08,0,0,1,6-11.79,107.33,107.33,0,0,1,10-10.48q5.52-5.07,12-11.55a118.11,118.11,0,0,0,12.57-15.06q6.12-8.59,12.06-17.61t8.45-13.43q2.49-4.41.77-13.59-8.61-5.89-30.32-11.79-4.83,2.63-10.51,12.85a58.77,58.77,0,0,1-13.79,17h-3.61Q677,69.35,676.5,64.61a13.15,13.15,0,0,1,2.59-9.17q3.09-4.42,7.66-14.91t8-20.47q3.43-10,6.37-14.74t10-2.21q7.07,2.55,12.58,14a127.28,127.28,0,0,0,15.94,4.09q8.52,1.63,17.14,2.95T769,27.76a16.25,16.25,0,0,1,5.85,7,90.11,90.11,0,0,1-.77,19.57q-1.47,9.91-9.13,28.09a196.92,196.92,0,0,1-19.13,34.88Q734.39,134,723.19,150.26,714.24,156.16,693.39,156.65Z"/><path class="cls-2" d="M802.11,119.64q-6.21-5.25-7.76-11a31.31,31.31,0,0,1-.51-12.77,87.33,87.33,0,0,1,2.93-13.18,159.48,159.48,0,0,1,6.54-16.63,116.72,116.72,0,0,1,11.8-20.47q7.15-10,9.14-15.64A18.69,18.69,0,0,1,830,21.29a14,14,0,0,1,7.15-3.36,9.76,9.76,0,0,1,6.63,2A23.39,23.39,0,0,1,849,24.65c1.26,1.64,1.55,4.2.86,7.7a64.73,64.73,0,0,1-3.36,11.13q-2.33,5.9-8,17.61T828,85.16q-4.74,12.38-9.13,24.9T802.11,119.64Zm83.39,26.85q-5.18-12.11-6.64-18.09t-2.41-28.74q-.94-22.77-5.51-37.1a111.28,111.28,0,0,1-5.17-29.64q-.6-15.32,3.79-19.33T881.1,9.75q7.15.16,9.57,7t7.15,20.47a244.11,244.11,0,0,1,7.92,28.17q3.19,14.58,6,28.66,1,8.52,2.58,22.76t2,21.21q.43,7-1.12,9.09c-1,1.42-3,2.56-5.86,3.44A41.08,41.08,0,0,1,898.16,152Q891.35,152.06,885.5,146.49ZM906.35,36.93q-4.67-1.47-7.07-7.61a47.31,47.31,0,0,1-2.93-14.25c-.34-5.41,1-8.54,4-9.42a7.56,7.56,0,0,1,7.93,2.13q3.45,3.43,4.74,11.38t.52,11.22Q912.72,33.67,906.35,36.93Zm19.81-9.5q-6.55-3.6-8.36-6.79t-2.93-10.08c-.74-4.58-.66-7.47.26-8.67S918,.06,920.82,0s4.82.93,5.86,3,2.06,6.06,3.1,12.12S929.61,25.25,926.16,27.43Z"/><path class="cls-2" d="M957.86,156.65q-8.26-1.64-6.72-8a29.2,29.2,0,0,1,6-11.79,108.67,108.67,0,0,1,10-10.48q5.51-5.07,12-11.55a118.15,118.15,0,0,0,12.58-15.06q6.1-8.59,12.06-17.61t8.44-13.43q2.49-4.41.78-13.59-8.62-5.89-30.33-11.79-4.83,2.63-10.51,12.85a58.74,58.74,0,0,1-13.78,17h-3.62Q941.48,69.35,941,64.61a13.09,13.09,0,0,1,2.58-9.17q3.11-4.42,7.67-14.91t8-20.47q3.45-10,6.37-14.74t10-2.21q7.07,2.55,12.58,14a127.11,127.11,0,0,0,15.93,4.09q8.53,1.63,17.15,2.95t12.23,3.6a16.33,16.33,0,0,1,5.86,7,89.5,89.5,0,0,1-.78,19.57q-1.47,9.91-9.13,28.09a196.29,196.29,0,0,1-19.13,34.88Q998.88,134,987.67,150.26,978.7,156.16,957.86,156.65Z"/><path class="cls-2" d="M1064.51,157c-3.68-1.75-5.8-3.34-6.37-4.75s-.26-5.16.94-11.22,1.47-28.8.78-68.21L1059,60.51q-2.07-44.7-3-50.76t4.74-9A56,56,0,0,1,1073.9.9a55.24,55.24,0,0,1,10.77,3.36q6.21,2.54,8.44,7.29,2.42,26.2,0,40.29a122.49,122.49,0,0,0,11.55,12q6.19,5.66,17.14,15t13.18,17q2.24,7.69.6,10.23t-8.7,5.65a16,16,0,0,1-13.78,0q-2.76-2-8.27-8.51a38.31,38.31,0,0,0-15-10.48q.35,23.58,0,40.61t-1.29,20.07c-.64,2-3,3.3-7.15,3.84Z"/></g><path class="cls-3" d="M723.82,36.26H658.18a4.92,4.92,0,0,0-3.48,1.44L623.59,68.81a5,5,0,0,0-1.44,3.48v11a4.92,4.92,0,0,0,1.44,3.48L661.84,125a4.91,4.91,0,0,0,3.47,1.44H724a4.91,4.91,0,0,0,4.91-4.92v-.85a4.87,4.87,0,0,0-1.44-3.47L714.25,104a4.92,4.92,0,0,0-3.48-1.44H682.2a4.92,4.92,0,0,1-3.48-1.44L658.27,80.67a4.91,4.91,0,0,1,0-7l13-13a4.91,4.91,0,0,1,3.47-1.44h36.54a4.9,4.9,0,0,0,3.47-1.43l12.52-12.53A4.88,4.88,0,0,0,728.71,42l0-.68A4.91,4.91,0,0,0,723.82,36.26Z"/><path class="cls-4" d="M811.41,126.44H753.27a4.48,4.48,0,0,1-3.16-1.31L711.18,86.2A4.46,4.46,0,0,1,709.87,83V78.8a4.44,4.44,0,0,1,1.31-3.16l38-38a4.51,4.51,0,0,1,3.17-1.3h95.17a4.51,4.51,0,0,1,3.17,1.3l79,79a4.52,4.52,0,0,1,1.31,3.17v1.94a4.48,4.48,0,0,1-4.48,4.47H900.38a4.47,4.47,0,0,1-3.16-1.31L834.59,62.23a4.47,4.47,0,0,0-3.16-1.31H768.9a4.44,4.44,0,0,0-3.16,1.31l-16,16a4.48,4.48,0,0,0,0,6.32l15.6,15.6a4.47,4.47,0,0,0,3.16,1.31h29.33a4.46,4.46,0,0,1,3.16,1.31l13.54,13.54a4.49,4.49,0,0,1,1.31,3.1l0,2.52A4.46,4.46,0,0,1,811.41,126.44Z"/><path class="cls-5" d="M812.74,73.68V100a4.75,4.75,0,0,0,1.39,3.35l21.46,21.46a4.75,4.75,0,0,0,3.36,1.39h26.31a4.74,4.74,0,0,0,4.74-4.74v-2.38a4.75,4.75,0,0,0-1.39-3.35L847.28,94.41a4.75,4.75,0,0,1-1.39-3.36V87a4.75,4.75,0,0,0-1.39-3.36l-13.2-13.2A4.77,4.77,0,0,0,828,69l-10.46-.06A4.74,4.74,0,0,0,812.74,73.68Z"/><path class="cls-6" d="M875,36.31H901.5a4.58,4.58,0,0,1,3.23,1.33l78.79,78.79a4.56,4.56,0,0,1,1.34,3.23v1.94a4.58,4.58,0,0,1-4.57,4.57H953.51a4.53,4.53,0,0,1-3.23-1.34L871.72,46.28A4.54,4.54,0,0,1,870.39,43V40.85A4.56,4.56,0,0,1,875,36.31Z"/><path class="cls-7" d="M630.56,45.58,616.41,59.73a4.57,4.57,0,0,1-3.23,1.36H582.23l-8,8h18.12a4.54,4.54,0,0,1,3.22,1.33l1.38,1.38a4.59,4.59,0,0,1,0,6.47L582.77,92.45a4.59,4.59,0,0,1-3.22,1.33h-30l-7.89,7.89h68.67a4.5,4.5,0,0,1,3.22,1.33l1.38,1.37a4.59,4.59,0,0,1,0,6.47L600.76,125a4.55,4.55,0,0,1-3.22,1.33h-86.3a4.3,4.3,0,0,1-.61,0H488.36a4.58,4.58,0,0,1-4.58-4.57v-1.94a4.6,4.6,0,0,1,1.36-3.23l78.79-78.79a4.54,4.54,0,0,1,3.22-1.33H626a4.57,4.57,0,0,1,3.22,1.33l1.37,1.38A4.54,4.54,0,0,1,630.56,45.58Z"/><path class="cls-8" d="M646,124.23l-1.07,1.08a3.19,3.19,0,0,1-2.29,1h-23a3.19,3.19,0,0,1-2.29-1l-1.09-1.08a3.23,3.23,0,0,1,0-4.55l9.86-9.86a3.27,3.27,0,0,1,2.28-.95h5.45a3.29,3.29,0,0,1,2.29.95l9.86,9.86A3.21,3.21,0,0,1,646,124.23Z"/><path class="cls-7" d="M536.45,36.42H509.91a4.6,4.6,0,0,0-3.23,1.33l-78.79,78.79a4.61,4.61,0,0,0-1.34,3.23v1.94a4.58,4.58,0,0,0,4.57,4.57h26.79a4.56,4.56,0,0,0,3.23-1.34l78.55-78.55A4.59,4.59,0,0,0,541,43.14V41A4.58,4.58,0,0,0,536.45,36.42Z"/><path class="cls-7" d="M370.52,123.4a3.91,3.91,0,0,1-.31-1.35A5.53,5.53,0,0,0,370.52,123.4Z"/><path class="cls-7" d="M484.66,41v2.12a4.55,4.55,0,0,1-1.33,3.29l-78.54,78.52a4.6,4.6,0,0,1-3.25,1.35H374.81a1.23,1.23,0,0,1-.27,0,1.51,1.51,0,0,1-.3,0,4.57,4.57,0,0,1-3-1.65,3.94,3.94,0,0,1-.73-1.19,5.53,5.53,0,0,1-.31-1.35,3.85,3.85,0,0,1,0-.48V41.11a4.54,4.54,0,0,1,4.35-4.69h21.59a4.52,4.52,0,0,1,4.35,4.69V87.6l49.83-49.85a4.7,4.7,0,0,1,3.26-1.33h26.49A4.6,4.6,0,0,1,484.66,41Z"/><path class="cls-7" d="M374.24,126.24a4.08,4.08,0,0,1-3-1.65A4.57,4.57,0,0,0,374.24,126.24Z"/><path class="cls-7" d="M361.1,41.11v80.57a5.16,5.16,0,0,1-.34,1.72,3.11,3.11,0,0,1-.25.52l-.2.33a4.6,4.6,0,0,1-2.88,1.94,3.14,3.14,0,0,1-.68.07,1.06,1.06,0,0,1-.25,0H329.77a4.6,4.6,0,0,1-3.25-1.35L248,46.41a4.71,4.71,0,0,1-1.36-3.29l0-2.12a4.58,4.58,0,0,1,4.6-4.58h26.48A4.63,4.63,0,0,1,281,37.75L330.8,87.6V61.09h-5.68c-2.32,0-4.21-1.6-4.21-3.54V40c0-2,1.89-3.54,4.21-3.54h31.77a1.23,1.23,0,0,1,.33,0A4.57,4.57,0,0,1,361.1,41.11Z"/><path class="cls-7" d="M361.1,121.68a4.26,4.26,0,0,1-.34,1.72A5.16,5.16,0,0,0,361.1,121.68Z"/><path class="cls-7" d="M360.31,124.25a4.15,4.15,0,0,1-2.88,1.94A4.6,4.6,0,0,0,360.31,124.25Z"/><path class="cls-7" d="M304.09,119.59l0,2.16a4.59,4.59,0,0,1-4.58,4.56H172.82a4.53,4.53,0,0,1-3.25-1.36l-1.35-1.35a4.53,4.53,0,0,1,0-6.47l18.93-18.94a4.58,4.58,0,0,1,3.23-1.33h51.26l-31-31H194.5V78.47a4.52,4.52,0,0,1-4.35,4.69H168.58a4.52,4.52,0,0,1-4.35-4.69V43.1a2,2,0,0,1,0-.36,4.52,4.52,0,0,1,1.28-3.41l1.54-1.53a4.5,4.5,0,0,1,3.24-1.35H221a4.56,4.56,0,0,1,3.24,1.33l78.55,78.54A4.73,4.73,0,0,1,304.09,119.59Z"/></g></g></svg>