<svg id="Layer_1" data-name="Layer 1" xmlns="http://www.w3.org/2000/svg" viewBox="0 0 200 146.77"><path id="Pfad_2737" data-name="Pfad 2737" d="M200,2.77V143.34a3.42,3.42,0,0,1-3.41,3.43H170a1.84,1.84,0,0,1-1.58-.89l-.2-.35h0l-61.41-107L85.48,1.28,84.8.2a.1.1,0,0,1,0-.14h31.46A7.76,7.76,0,0,1,123,3.88l44.1,75.91a1,1,0,0,0,1.34.44,1,1,0,0,0,.55-.94V2.71A2.72,2.72,0,0,1,171.71,0h25.5A2.77,2.77,0,0,1,200,2.75h0Z" transform="translate(0 0)" style="fill:#fff"/><path id="Pfad_2739" data-name="Pfad 2739" d="M105.53,73.41a82.87,82.87,0,0,1-3.66,24.37h0c-.23.74-.47,1.47-.71,2.21A79.58,79.58,0,0,1,98,108a74.43,74.43,0,0,1-9.46,15.46,65.28,65.28,0,0,1-19.91,16.83,50,50,0,0,1-11.24,4.53A55.8,55.8,0,0,1,45,146.73H4a4,4,0,0,1-4-4H0V4A4,4,0,0,1,3.77,0H42.36A57.36,57.36,0,0,1,57.44,2h0A49.56,49.56,0,0,1,68.62,6.47,64.93,64.93,0,0,1,88.54,23.41,77.76,77.76,0,0,1,101.16,47c.22.67.44,1.33.64,2h0A82.45,82.45,0,0,1,105.53,73.41Z" transform="translate(0 0)" style="fill:#fff"/></svg>