<svg xmlns="http://www.w3.org/2000/svg" xmlns:xlink="http://www.w3.org/1999/xlink" viewBox="0 0 200 146.79"><defs><style>.cls-1{fill:#f2fbf7;}.cls-2{fill:url(#linear-gradient);}</style><linearGradient id="linear-gradient" x1="-1424.38" y1="814.49" x2="-1424.38" y2="814.63" gradientTransform="matrix(776.48, 0, 0, -1079.4, 1106064.68, 879309.65)" gradientUnits="userSpaceOnUse"><stop offset="0" stop-color="#dfffcd"/><stop offset="0.48" stop-color="#90f9c4"/><stop offset="1" stop-color="#39f3bb"/></linearGradient></defs><g id="Layer_2" data-name="Layer 2"><g id="Layer_1-2" data-name="Layer 1"><g id="dnvieLOGO"><path id="Pfad_2737" data-name="Pfad 2737" class="cls-1" d="M200,2.77V143.34a3.42,3.42,0,0,1-3.43,3.43h-5.65v0H170a1.84,1.84,0,0,1-1.58-.89l-.2-.35h0L106.81,38.49,85.48,1.28,84.8.2a.1.1,0,0,1,0-.15l.06,0h31.39A7.76,7.76,0,0,1,123,3.88L167.1,79.79a1,1,0,0,0,1.89-.5V2.71A2.72,2.72,0,0,1,171.71,0h25.5A2.77,2.77,0,0,1,200,2.76Z"/><path id="Pfad_2739" data-name="Pfad 2739" class="cls-2" d="M105.53,73.41a82.82,82.82,0,0,1-3.66,24.37v0c-.23.74-.47,1.47-.71,2.21a80.09,80.09,0,0,1-3.16,8,74.43,74.43,0,0,1-9.46,15.46,65.28,65.28,0,0,1-19.91,16.83,50,50,0,0,1-11.24,4.53A55.9,55.9,0,0,1,45,146.73H4a4,4,0,0,1-4-4H0V4A4,4,0,0,1,3.77,0H42.36A57.29,57.29,0,0,1,57.44,2h0A49.5,49.5,0,0,1,68.62,6.47,64.93,64.93,0,0,1,88.54,23.41,77.76,77.76,0,0,1,101.16,47c.22.67.44,1.33.64,2v0A82.25,82.25,0,0,1,105.53,73.41Z"/></g></g></g></svg>