<svg xmlns="http://www.w3.org/2000/svg" xmlns:xlink="http://www.w3.org/1999/xlink" viewBox="0 0 987.25 452.81"><defs><style>.cls-1{opacity:0.04;}.cls-2{fill:#fff;}.cls-3{fill:#f2fbf7;}.cls-4{fill:url(#linear-gradient);}.cls-5{fill:url(#linear-gradient-2);}.cls-6{fill:url(#linear-gradient-3);}.cls-7{fill:url(#linear-gradient-4);}.cls-8{fill:url(#linear-gradient-5);}</style><linearGradient id="linear-gradient" x1="473.53" y1="179.46" x2="473.53" y2="287.62" gradientUnits="userSpaceOnUse"><stop offset="0" stop-color="#daffcd"/><stop offset="1" stop-color="#3ef3bc"/></linearGradient><linearGradient id="linear-gradient-2" x1="384.45" y1="179.45" x2="384.45" y2="287.56" xlink:href="#linear-gradient"/><linearGradient id="linear-gradient-3" x1="316.64" y1="179.46" x2="316.64" y2="287.57" xlink:href="#linear-gradient"/><linearGradient id="linear-gradient-4" x1="167.99" y1="179.46" x2="167.99" y2="287.57" xlink:href="#linear-gradient"/><linearGradient id="linear-gradient-5" x1="84.13" y1="179.49" x2="84.13" y2="287.59" xlink:href="#linear-gradient"/></defs><g id="Layer_2" data-name="Layer 2"><g id="Layer_1-2" data-name="Layer 1"><g class="cls-1"><path class="cls-2" d="M187,171.11q-4.46-1.43-5.73-4.09c-.85-1.77-1.35-5.24-1.49-10.39a16.33,16.33,0,0,1,4.88-12.7,46,46,0,0,1,12.22-8.44,68.86,68.86,0,0,0,14-9.24q6.91-5.77,11.16-9.42t15.3-17.15q-14.67-8.52-18.91-13c-2.84-3-4.25-5.39-4.25-7.28s-1.06-4.62-3.19-8.18l-3.4,3.56q-8.07,6.39-11.47,9.5a16.74,16.74,0,0,1-7.86,4.09,12.24,12.24,0,0,1-8.71-1.33q-4.26-2.31-9.57-5.25t-3.61-7.37a70.75,70.75,0,0,1,4.68-9.68q3-5.25,6.48-12.09t8.71-16.25Q191.5,27,196,18.12a62.71,62.71,0,0,1,8.6-13.5Q208.7,0,219,0t12.64,3.29Q234,6.58,234,12.79t-3.61,13.86a58.85,58.85,0,0,0,19.54,7.82,93.33,93.33,0,0,1,20.72,6.93q10.31,4.8,19.65,9.42,1.92,3.56,0,13.41a48.16,48.16,0,0,1-6.16,16.62q-4.25,6.75-8.92,14a124,124,0,0,1-10,13.51q-5.31,6.23-13.17,16.79t-31.66,31.36q-13,9.77-16.89,11.19a71.76,71.76,0,0,1-8.08,2.4A36.5,36.5,0,0,1,187,171.11Zm62.26-97,2.76-11a25.78,25.78,0,0,0-10.31-5.33q-5.62-1.43-11.9-2.85t-12-2.48a99.39,99.39,0,0,0-6,16.7,47.89,47.89,0,0,1,15.94,5q7,3.73,19.54,5.16ZM271,37.85q-7.44-5.34-9.78-16.35t10.2-12.08q11.69-.7,11.79,10.13t-.63,14.3Q281.79,37.32,271,37.85ZM297.09,37q-6.16-4.08-7.33-9.51t-3-12q-1.82-6.57.74-10a22.12,22.12,0,0,1,10-2.84,48.68,48.68,0,0,1,7.75.53c2.2.35,3.29,1.45,3.29,3.29s.29,5.95.85,12.34.25,11-1,13.69S303.47,36.72,297.09,37Z"/><path class="cls-2" d="M418.62,157.25q-22.1.88-32.93-.09a306.06,306.06,0,0,0-30.81-.62q-15.93-.18-18.8-.62a7.7,7.7,0,0,1-4.78-2.67,23.49,23.49,0,0,0-4.68-4.08c-1.84-1.25-2.76-4.29-2.76-9.15s1.35-8.24,4-10.13,5.2-3.64,7.54-5.24a18,18,0,0,1,7.44-3q3.93-.63,42.39-.63,35.48-.89,47.16,1.25,22.95,0,28.16,8.53t5.2,15.63q0,7.11-3.5,10T418.62,157.25ZM396.53,50.64q-22.95-1.77-30-3.2T352.12,45q-7.44-1-10.3-3.28c-1.92-1.54-2.87-4.09-2.87-7.64s.74-6.19,2.23-7.91,4-2.87,7.54-3.47,7.79-1.18,12.75-1.77,13-1.07,24.22-1.42,17.92-.21,20.19.44a60.25,60.25,0,0,0,11.89,1.42,64.14,64.14,0,0,1,13.81,2q5.31,1.5,10.52,3.46T449,31.1a29.58,29.58,0,0,1,3.5,7.64q1.8,5.32-2.87,7.72a35.72,35.72,0,0,1-10.51,3.38,69.8,69.8,0,0,1-11.48,1Q422,50.82,396.53,50.64Z"/><path class="cls-2" d="M508.07,169.69a76.63,76.63,0,0,1-11.58-3,11.62,11.62,0,0,1-7.54-7.29q-1.9-5.32,6.8-17.94A40.3,40.3,0,0,1,519,134.33q12.86,0,25.18-.89-3.83-26.11-4.78-45.84t-2.87-40q-8.71,0-21-.44a65.45,65.45,0,0,1-23.8-5.42A97.34,97.34,0,0,1,488.53,32q-1.27-4.78,2.54-10.48a200.28,200.28,0,0,1,56-15.9,377.2,377.2,0,0,1,62.79-2.93Q623.65,8,624.51,18.3a39.39,39.39,0,0,1-3.83,20.26,43,43,0,0,1-22.63,7.73q-11.79.43-23.26,1.33A256.08,256.08,0,0,1,571,91.86q-3.83,21.86-6.58,41.58,47.8,2.49,56.73,4.18c5.95,1.12,9.41,2.52,10.41,4.17s1.06,8.24.21,19.73a52.1,52.1,0,0,1-17.42,5.59Q604.32,168.63,508.07,169.69Z"/><path class="cls-2" d="M676.56,162.23q-16.78-2.85-19.55-6c-1.84-2.14-.71-4.59,3.4-7.38s7.83-7.25,11.16-13.41,6.62-11.7,9.88-16.62,6.9-14.42,10.94-28.52a139.51,139.51,0,0,0,5.74-40.77q-.33-19.64.32-31.1t6.26-11.46a54.1,54.1,0,0,1,13.6,2.13,20.32,20.32,0,0,1,12.32,9A124.88,124.88,0,0,1,737,29q2,4.09-.53,16.62t-8.82,33.31q-6.27,20.79-11.26,42.2t-11.79,30.3q-6.81,8.88-8.71,9.86T676.56,162.23Zm79.89,5.15q-8.72-4.09-11.79-9.24t-3.08-18.57q0-13.41.42-21.85t6.16-42.47q5.75-34,5.63-47.44t1.92-16.62a9.75,9.75,0,0,1,5.2-4.26,21.34,21.34,0,0,1,6.8-1.07q3.62,0,8.61,3.65a20.68,20.68,0,0,1,6.9,7.81q1.92,4.18,1.91,16.8t-1.91,17.23a119.68,119.68,0,0,0-4.46,14.57q-2.55,10-5,19.28a116.92,116.92,0,0,0-3.08,14.57q-.65,5.25-.64,20.35t2.55,21.32q4.88-3,10-6a25.68,25.68,0,0,0,8.08-7.29q3-4.26,7.43-12.17t15.09-10.57q5.52-.36,6.8,2.22a12.83,12.83,0,0,1,1.27,5.77q0,3.21.64,11.82t-.74,11.9q-1.39,3.3-10,8.53A107.59,107.59,0,0,0,797.67,155q-4.89,4.17-15.3,9.24T756.45,167.38Z"/><path class="cls-2" d="M222.41,439.31q-22.11.88-32.93-.09a306.14,306.14,0,0,0-30.81-.62q-15.94-.18-18.81-.62a7.72,7.72,0,0,1-4.78-2.67,23.49,23.49,0,0,0-4.67-4.09q-2.76-1.86-2.76-9.15t4-10.13q4-2.83,7.55-5.24a18.05,18.05,0,0,1,7.43-3q3.93-.62,42.39-.62,35.47-.88,47.17,1.24,23,0,28.15,8.53t5.21,15.64q0,7.11-3.51,10T222.41,439.31ZM200.31,332.7q-23-1.79-30-3.2t-14.45-2.4q-7.44-1-10.3-3.29c-1.91-1.54-2.87-4.08-2.87-7.64s.75-6.19,2.23-7.91,4-2.87,7.55-3.46,7.78-1.18,12.74-1.78,13-1.06,24.23-1.42,17.91-.2,20.18.45,6.23,1.12,11.9,1.42a64.32,64.32,0,0,1,13.81,1.95q5.31,1.51,10.52,3.47c3.46,1.3,5.77,2.72,6.9,4.26a30,30,0,0,1,3.51,7.64q1.8,5.34-2.87,7.73a35.79,35.79,0,0,1-10.52,3.38,69.66,69.66,0,0,1-11.47,1Q225.8,332.87,200.31,332.7Z"/><path class="cls-2" d="M312.28,452.1q-10.2-1.77-8.28-8.71a30.31,30.31,0,0,1,7.43-12.79,123.56,123.56,0,0,1,12.33-11.37q6.8-5.5,14.76-12.53A134.15,134.15,0,0,0,354,390.35q7.55-9.32,14.88-19.1t10.41-14.57q3.07-4.8.95-14.74-10.62-6.4-37.39-12.8-6,2.85-13,13.95a66.08,66.08,0,0,1-17,18.39h-4.46q-16.36-4.08-17-9.24t3.19-9.95q3.83-4.8,9.45-16.17T314,303.91q4.25-10.83,7.86-16t12.33-2.4q8.7,2.76,15.51,15.19a171.68,171.68,0,0,0,19.65,4.44q10.51,1.78,21.14,3.2t15.09,3.91a18.44,18.44,0,0,1,7.22,7.64,85.94,85.94,0,0,1-1,21.24q-1.8,10.75-11.26,30.47A207.16,207.16,0,0,1,377,409.46Q362.85,427.58,349,445.17,338,451.58,312.28,452.1Z"/><path class="cls-2" d="M446.35,411.94q-7.65-5.69-9.56-11.9a29.9,29.9,0,0,1-.64-13.86,85.67,85.67,0,0,1,3.61-14.3,161.16,161.16,0,0,1,8.08-18,123,123,0,0,1,14.55-22.21q8.82-10.83,11.26-17a20.37,20.37,0,0,1,7.12-9.42,18.37,18.37,0,0,1,8.82-3.64,13.29,13.29,0,0,1,8.18,2.13,27.85,27.85,0,0,1,6.37,5.16c1.56,1.77,1.91,4.56,1.06,8.35a63.94,63.94,0,0,1-4.14,12.08q-2.87,6.39-9.88,19.1t-12.85,26.12q-5.85,13.43-11.26,27T446.35,411.94Zm102.84,29.14q-6.37-13.14-8.18-19.63t-3-31.18q-1.17-24.7-6.8-40.25a108,108,0,0,1-6.37-32.16q-.75-16.62,4.67-21t14.24-4.17q8.81.18,11.79,7.64t8.82,22.21a240.89,240.89,0,0,1,9.77,30.56q3.93,15.81,7.33,31.1,1.28,9.24,3.19,24.69t2.44,23q.52,7.56-1.38,9.86c-1.27,1.54-3.69,2.79-7.22,3.74A57.26,57.26,0,0,1,564.8,447,23.43,23.43,0,0,1,549.19,441.08Zm25.7-118.87q-5.73-1.59-8.71-8.26a46.09,46.09,0,0,1-3.61-15.46c-.42-5.86,1.2-9.27,4.89-10.22a10.19,10.19,0,0,1,9.77,2.31q4.24,3.74,5.84,12.35t.64,12.17C583.07,317.48,580.13,319.84,574.89,322.21Zm24.44-10.3Q591.25,308,589,304.53t-3.61-10.93q-1.38-7.46.32-9.41t7-2q5.31-.09,7.23,3.19t3.82,13.15Q605.71,308.36,599.33,311.91Z"/><path class="cls-2" d="M638.42,452.1q-10.2-1.77-8.28-8.71a30.31,30.31,0,0,1,7.43-12.79,123.56,123.56,0,0,1,12.33-11.37q6.79-5.5,14.76-12.53a134.15,134.15,0,0,0,15.51-16.35q7.55-9.32,14.88-19.1t10.41-14.57q3.07-4.8.95-14.74-10.62-6.4-37.39-12.8-6,2.85-13,13.95a66.08,66.08,0,0,1-17,18.39H634.6q-16.36-4.08-17-9.24t3.19-9.95q3.83-4.8,9.45-16.17t9.88-22.21q4.25-10.83,7.86-16t12.33-2.4q8.7,2.76,15.51,15.19a171.68,171.68,0,0,0,19.65,4.44q10.51,1.78,21.14,3.2t15.09,3.91a18.44,18.44,0,0,1,7.22,7.64,85.46,85.46,0,0,1-1,21.24q-1.8,10.75-11.26,30.47a207.16,207.16,0,0,1-23.58,37.85Q689,427.58,675.18,445.17,664.13,451.58,638.42,452.1Z"/><path class="cls-2" d="M769.94,452.46q-6.8-2.85-7.86-5.16t1.17-12.17q2.24-9.86,1-74l-1.06-13.33q-2.55-48.51-3.72-55.08t5.85-9.78q10.62-.7,16.25.18a75.76,75.76,0,0,1,13.28,3.64q7.65,2.76,10.41,7.91,3,28.44,0,43.71a143.12,143.12,0,0,0,14.24,13.06q7.63,6.13,21.14,16.26t16.25,18.48q2.76,8.35.74,11.1t-10.73,6.13a22.13,22.13,0,0,1-17,0q-3.4-2.13-10.2-9.23T801.17,382.8q.44,25.59,0,44.07t-1.59,21.77q-1.17,3.28-8.82,4.17Z"/></g><path class="cls-3" d="M673.21,179.27h-79a5.9,5.9,0,0,0-4.18,1.73l-37.43,37.43a5.91,5.91,0,0,0-1.74,4.18v13.21a5.91,5.91,0,0,0,1.74,4.18l46,46a5.9,5.9,0,0,0,4.18,1.73h70.57a5.92,5.92,0,0,0,5.91-5.91v-1a5.93,5.93,0,0,0-1.73-4.19L661.7,260.76a5.92,5.92,0,0,0-4.18-1.73H623.14A5.89,5.89,0,0,1,619,257.3l-24.61-24.6a5.92,5.92,0,0,1,0-8.37L610,208.7a5.9,5.9,0,0,1,4.18-1.73h44a5.91,5.91,0,0,0,4.18-1.74l15.06-15.06a5.86,5.86,0,0,0,1.73-4l0-.81A5.91,5.91,0,0,0,673.21,179.27Z"/><path class="cls-3" d="M778.59,287.75h-70a5.39,5.39,0,0,1-3.81-1.58L658,239.35a5.38,5.38,0,0,1-1.58-3.8v-5.11a5.37,5.37,0,0,1,1.58-3.8l45.74-45.74a5.37,5.37,0,0,1,3.8-1.58h114.5a5.39,5.39,0,0,1,3.81,1.58l95,95a5.38,5.38,0,0,1,1.58,3.8v2.34a5.38,5.38,0,0,1-5.38,5.38H885.62a5.37,5.37,0,0,1-3.8-1.58L806.47,210.5a5.42,5.42,0,0,0-3.81-1.57H727.44a5.38,5.38,0,0,0-3.8,1.57l-19.23,19.23a5.38,5.38,0,0,0,0,7.61l18.76,18.76a5.39,5.39,0,0,0,3.81,1.58h35.28a5.4,5.4,0,0,1,3.8,1.57l16.29,16.29a5.34,5.34,0,0,1,1.57,3.73l0,3A5.37,5.37,0,0,1,778.59,287.75Z"/><path class="cls-3" d="M780.18,224.29V256a5.72,5.72,0,0,0,1.68,4l25.82,25.82a5.7,5.7,0,0,0,4,1.67h31.65a5.7,5.7,0,0,0,5.71-5.7v-2.86a5.71,5.71,0,0,0-1.67-4l-25.66-25.66a5.71,5.71,0,0,1-1.67-4v-4.94a5.71,5.71,0,0,0-1.68-4l-15.88-15.88a5.68,5.68,0,0,0-4-1.68l-12.58-.07A5.71,5.71,0,0,0,780.18,224.29Z"/><path class="cls-3" d="M855,179.32H887a5.5,5.5,0,0,1,3.88,1.61l94.79,94.79a5.5,5.5,0,0,1,1.61,3.88v2.33a5.5,5.5,0,0,1-5.5,5.5H949.53a5.5,5.5,0,0,1-3.89-1.61l-94.5-94.5a5.57,5.57,0,0,1-1.61-3.91l0-2.62A5.49,5.49,0,0,1,855,179.32Z"/><path class="cls-4" d="M561,190.48l-17,17a5.49,5.49,0,0,1-3.88,1.62H502.87l-9.65,9.66H515a5.45,5.45,0,0,1,3.88,1.6l1.66,1.65a5.53,5.53,0,0,1,0,7.79l-17,17a5.5,5.5,0,0,1-3.87,1.6h-36.1L454.06,258h82.61a5.45,5.45,0,0,1,3.87,1.6l1.66,1.66a5.52,5.52,0,0,1,0,7.78l-17,17a5.5,5.5,0,0,1-3.88,1.6H417.47c-.24,0-.49,0-.73-.05h-26.8a5.51,5.51,0,0,1-5.5-5.51v-2.33a5.52,5.52,0,0,1,1.62-3.88l94.79-94.79a5.45,5.45,0,0,1,3.88-1.6h70.76a5.47,5.47,0,0,1,3.88,1.6l1.65,1.66A5.49,5.49,0,0,1,561,190.48Z"/><path class="cls-3" d="M579.56,285.1l-1.28,1.3a3.84,3.84,0,0,1-2.75,1.17h-27.7a3.84,3.84,0,0,1-2.76-1.17l-1.3-1.3a3.89,3.89,0,0,1,0-5.47l11.86-11.87a3.9,3.9,0,0,1,2.74-1.15h6.55a3.91,3.91,0,0,1,2.76,1.15l11.86,11.87A3.87,3.87,0,0,1,579.56,285.1Z"/><path class="cls-5" d="M447.79,179.45H415.87a5.48,5.48,0,0,0-3.88,1.61L317.2,275.85a5.5,5.5,0,0,0-1.61,3.89v2.33a5.49,5.49,0,0,0,5.5,5.49h32.22A5.5,5.5,0,0,0,357.2,286l94.49-94.5a5.45,5.45,0,0,0,1.61-3.91v-2.62A5.5,5.5,0,0,0,447.79,179.45Z"/><path class="cls-3" d="M248.18,284.1a5,5,0,0,1-.38-1.63A6.79,6.79,0,0,0,248.18,284.1Z"/><path class="cls-6" d="M385.49,185v2.55a5.53,5.53,0,0,1-1.6,4l-94.48,94.46a5.57,5.57,0,0,1-3.91,1.63H253.33a1.19,1.19,0,0,1-.32,0,1.38,1.38,0,0,1-.35,0,5.44,5.44,0,0,1-3.61-2,4.85,4.85,0,0,1-.87-1.43,6.79,6.79,0,0,1-.38-1.63,5.43,5.43,0,0,1,0-.57V185.11a5.46,5.46,0,0,1,5.23-5.65h26a5.45,5.45,0,0,1,5.24,5.65V241l59.93-60a5.64,5.64,0,0,1,3.93-1.6H380A5.52,5.52,0,0,1,385.49,185Z"/><path class="cls-3" d="M252.66,287.51a4.92,4.92,0,0,1-3.61-2A5.44,5.44,0,0,0,252.66,287.51Z"/><path class="cls-7" d="M236.85,185.11V282a6.74,6.74,0,0,1-.41,2.07,4.43,4.43,0,0,1-.3.62l-.24.41a5.63,5.63,0,0,1-3.48,2.33,4.45,4.45,0,0,1-.81.08,1,1,0,0,1-.3,0H199.15a5.55,5.55,0,0,1-3.91-1.63l-94.49-94.46a5.68,5.68,0,0,1-1.62-4l0-2.55a5.52,5.52,0,0,1,5.54-5.51h31.86a5.52,5.52,0,0,1,3.91,1.6l59.94,60v-31.9h-6.84c-2.79,0-5.07-1.92-5.07-4.25V183.72c0-2.36,2.28-4.26,5.07-4.26h38.21a1.84,1.84,0,0,1,.41,0A5.51,5.51,0,0,1,236.85,185.11Z"/><path class="cls-3" d="M236.85,282a5.24,5.24,0,0,1-.41,2.07A6.74,6.74,0,0,0,236.85,282Z"/><path class="cls-3" d="M235.9,285.13a5.06,5.06,0,0,1-3.48,2.33A5.63,5.63,0,0,0,235.9,285.13Z"/><path class="cls-8" d="M168.26,279.51l0,2.61a5.51,5.51,0,0,1-5.51,5.47H10.33A5.45,5.45,0,0,1,6.43,286L4.8,284.34a5.46,5.46,0,0,1,0-7.78l22.78-22.79a5.47,5.47,0,0,1,3.88-1.6H93.13L55.84,214.91H36.42V230a5.44,5.44,0,0,1-5.23,5.65h-26A5.44,5.44,0,0,1,0,230V187.49a1.94,1.94,0,0,1,0-.43A5.43,5.43,0,0,1,1.57,183l1.85-1.84a5.42,5.42,0,0,1,3.9-1.63H68.24a5.52,5.52,0,0,1,3.9,1.6l94.49,94.49A5.67,5.67,0,0,1,168.26,279.51Z"/></g></g></svg>