<svg xmlns="http://www.w3.org/2000/svg" xmlns:xlink="http://www.w3.org/1999/xlink" viewBox="0 0 693.73 387.83"><defs><style>.cls-1{opacity:0.04;}.cls-2{fill:#fff;}.cls-3{fill:url(#linear-gradient);}.cls-4{fill:url(#linear-gradient-2);}.cls-5{fill:url(#linear-gradient-3);}.cls-6{fill:url(#linear-gradient-4);}.cls-7{fill:#f2fbf7;}.cls-8{fill:url(#linear-gradient-5);}</style><linearGradient id="linear-gradient" x1="152.74" y1="326.33" x2="152.74" y2="192.75" gradientUnits="userSpaceOnUse"><stop offset="0" stop-color="#daffcd"/><stop offset="1" stop-color="#3ef3bc"/></linearGradient><linearGradient id="linear-gradient-2" x1="367.42" y1="326.33" x2="367.42" y2="192.81" xlink:href="#linear-gradient"/><linearGradient id="linear-gradient-3" x1="398.44" y1="326" x2="398.44" y2="241.15" xlink:href="#linear-gradient"/><linearGradient id="linear-gradient-4" x1="526.21" y1="325.94" x2="526.21" y2="192.81" xlink:href="#linear-gradient"/><linearGradient id="linear-gradient-5" x1="86.95" y1="326.1" x2="86.95" y2="300.3" xlink:href="#linear-gradient"/></defs><g id="Layer_2" data-name="Layer 2"><g id="Layer_1-2" data-name="Layer 1"><g class="cls-1"><path class="cls-2" d="M46.66,184.62c-2.83-1-4.64-2.49-5.45-4.41S39.93,174.56,39.8,169s1.41-10.13,4.64-13.71A44.25,44.25,0,0,1,56,146.18a65.11,65.11,0,0,0,13.32-10q6.54-6.22,10.59-10.16t14.52-18.5q-13.92-9.19-17.95-14c-2.7-3.2-4-5.82-4-7.86s-1-5-3-8.82l-3.23,3.83Q58.56,87.61,55.33,91a15.33,15.33,0,0,1-7.46,4.41,10.43,10.43,0,0,1-8.27-1.44q-4.05-2.49-9.08-5.66c-3.36-2.1-4.51-4.76-3.43-8a82.07,82.07,0,0,1,4.44-10.45q2.82-5.66,6.15-13T46,39.3q4.94-10.15,9.18-19.75T63.3,5Q67.23,0,77,0T89,3.55q2.22,3.54,2.22,10.25a39.35,39.35,0,0,1-3.43,15,52.45,52.45,0,0,0,18.56,8.43A81.94,81.94,0,0,1,126,44.67q9.78,5.17,18.66,10.16,1.81,3.84,0,14.47a56.56,56.56,0,0,1-5.85,17.93q-4,7.29-8.47,15.15A134.43,134.43,0,0,1,120.88,117q-5,6.7-12.51,18.11T78.32,168.9Q66,179.45,62.29,181a65.22,65.22,0,0,1-7.67,2.59A30.75,30.75,0,0,1,46.66,184.62ZM105.75,79.94l2.62-11.88a23.56,23.56,0,0,0-9.78-5.75q-5.34-1.53-11.29-3.07T75.9,56.56a118.09,118.09,0,0,0-5.65,18,41.43,41.43,0,0,1,15.13,5.36Q92,84,103.94,85.5Zm20.57-39.1q-7-5.76-9.27-17.64t9.68-13q11.08-.77,11.19,10.93t-.6,15.43Q136.6,40.25,126.32,40.84Zm24.81-1q-5.85-4.41-7-10.26t-2.82-12.94q-1.71-7.1.71-10.74,5.24-3.06,9.48-3.06a41.61,41.61,0,0,1,7.36.57C161,3.83,162,5,162,7s.27,6.42.81,13.32.23,11.83-.91,14.76S157.18,39.62,151.13,39.88Z"/><path class="cls-2" d="M255.21,169.67q-21,.95-31.26-.1a255.8,255.8,0,0,0-29.25-.67q-15.12-.19-17.85-.67a7.13,7.13,0,0,1-4.54-2.88,24,24,0,0,0-4.43-4.41q-2.62-2-2.63-9.87t3.84-10.93q3.82-3.06,7.16-5.65a16,16,0,0,1,7.06-3.26q3.72-.67,40.23-.67,33.69-1,44.78,1.34,21.78,0,26.72,9.2T300,158q0,7.68-3.32,10.83T255.21,169.67Zm-21-115q-21.78-1.92-28.44-3.45c-4.43-1-9-1.89-13.71-2.59s-8-1.88-9.78-3.55-2.73-4.41-2.73-8.24.71-6.68,2.12-8.53,3.8-3.1,7.16-3.74,7.39-1.28,12.1-1.92,12.37-1.15,23-1.53,17-.22,19.16.48S249,22.78,254.4,23.1a54.45,54.45,0,0,1,13.11,2.11q5,1.63,10,3.74t6.55,4.6a34.3,34.3,0,0,1,3.33,8.24q1.71,5.76-2.72,8.34a31.08,31.08,0,0,1-10,3.65,58.5,58.5,0,0,1-10.89,1Q258.44,54.83,234.23,54.64Z"/><path class="cls-2" d="M340.12,183.09a66.4,66.4,0,0,1-11-3.26A11.8,11.8,0,0,1,322,172q-1.82-5.76,6.45-19.37a35.15,35.15,0,0,1,22.09-7.66q12.19,0,23.9-1-3.63-28.18-4.54-49.46t-2.72-43.14q-8.28,0-20-.48a55.76,55.76,0,0,1-22.59-5.85q-1.81-5.36-3-10.54T324,23.2A173.1,173.1,0,0,1,377.13,6a316.14,316.14,0,0,1,59.6-3.16q13.11,5.75,13.92,16.87A47.44,47.44,0,0,1,447,41.6q-10.29,7.86-21.48,8.34t-22.09,1.44a313.37,313.37,0,0,1-3.63,47.74q-3.63,23.58-6.25,44.86,45.38,2.69,53.85,4.5t9.89,4.51q1.4,2.69.2,21.28a45.5,45.5,0,0,1-16.54,6Q431.49,181.93,340.12,183.09Z"/><path class="cls-2" d="M500.06,175q-15.93-3.07-18.55-6.52t3.23-8q5.83-4.5,10.59-14.47t9.37-17.93q4.65-7.95,10.39-30.77a170.06,170.06,0,0,0,5.45-44q-.3-21.18.3-33.55t5.95-12.36a45.41,45.41,0,0,1,12.91,2.3,19.66,19.66,0,0,1,11.7,9.68q4.13,7.38,6.05,11.79t-.51,17.92q-2.41,13.53-8.37,36t-10.69,45.53q-4.74,23.11-11.19,32.69T518.42,174Q516.61,175,500.06,175Zm75.84,5.55q-8.26-4.41-11.19-10t-2.93-20q0-14.47.41-23.58T568,81.19q5.44-36.7,5.34-51.19t1.82-17.92a9.55,9.55,0,0,1,4.94-4.6,17.87,17.87,0,0,1,6.45-1.15q3.43,0,8.17,3.93a21.58,21.58,0,0,1,6.55,8.43q1.83,4.51,1.82,18.12t-1.82,18.6a142.36,142.36,0,0,0-4.23,15.72q-2.42,10.74-4.74,20.8a140.6,140.6,0,0,0-2.92,15.72q-.61,5.66-.61,21.95t2.42,23q4.63-3.25,9.48-6.51a25.68,25.68,0,0,0,7.66-7.86q2.83-4.6,7.06-13.14t14.32-11.4q5.25-.39,6.46,2.39a15.59,15.59,0,0,1,1.21,6.23q0,3.45.6,12.75t-.7,12.85q-1.32,3.54-9.48,9.2A102.21,102.21,0,0,0,615,167.27q-4.63,4.5-14.52,10T575.9,180.59Z"/><path class="cls-2" d="M90,373.26q-21,1-31.27-.09t-29.24-.67q-15.13-.19-17.85-.68A7.09,7.09,0,0,1,7.06,369a23.2,23.2,0,0,0-4.44-4.41Q0,362.53,0,354.67t3.83-10.93q3.82-3.06,7.16-5.66a16.14,16.14,0,0,1,7.06-3.26q3.73-.66,40.24-.67,33.68-1,44.78,1.34,21.78,0,26.72,9.21t4.94,16.87q0,7.67-3.33,10.83T90,373.26Zm-21-115q-21.78-1.91-28.44-3.45T26.83,252.2q-7.06-1.06-9.79-3.55t-2.72-8.25q0-5.75,2.12-8.53c1.41-1.85,3.8-3.09,7.16-3.74s7.39-1.27,12.1-1.91,12.37-1.15,23-1.54,17-.22,19.16.48,5.92,1.22,11.3,1.54a54,54,0,0,1,13.11,2.11q5,1.62,10,3.73c3.3,1.41,5.48,3,6.56,4.61a34.72,34.72,0,0,1,3.33,8.24q1.71,5.75-2.73,8.34a31.25,31.25,0,0,1-10,3.64,57.69,57.69,0,0,1-10.89,1.06Q93.17,258.43,69,258.23Z"/><path class="cls-2" d="M175.27,387.07q-9.68-1.92-7.86-9.4a34.12,34.12,0,0,1,7.05-13.8,126.45,126.45,0,0,1,11.7-12.27q6.45-5.94,14-13.52a138.38,138.38,0,0,0,14.72-17.63q7.17-10.06,14.12-20.61t9.89-15.72q2.91-5.19.9-15.92-10.08-6.9-35.49-13.8-5.65,3.07-12.31,15a68.79,68.79,0,0,1-16.13,19.84h-4.24q-15.52-4.41-16.13-10a15.34,15.34,0,0,1,3-10.73q3.63-5.18,9-17.45t9.38-24q4-11.7,7.46-17.26t11.7-2.59q8.26,3,14.72,16.4a149.28,149.28,0,0,0,18.66,4.79q10,1.92,20.06,3.45t14.33,4.22a19.06,19.06,0,0,1,6.85,8.24,104.54,104.54,0,0,1-.91,22.91q-1.71,11.61-10.68,32.88a230.45,230.45,0,0,1-22.39,40.83q-13.42,19.56-26.53,38.54Q199.68,386.49,175.27,387.07Z"/><path class="cls-2" d="M302.54,343.74q-7.26-6.14-9.08-12.85a36.54,36.54,0,0,1-.6-14.95,103.42,103.42,0,0,1,3.43-15.43A187.52,187.52,0,0,1,304,281.05a136.11,136.11,0,0,1,13.82-24q8.37-11.69,10.69-18.31a22,22,0,0,1,6.75-10.16q4.44-3.54,8.37-3.93a11.43,11.43,0,0,1,7.77,2.31,27.72,27.72,0,0,1,6,5.55q2.22,2.88,1,9a76.22,76.22,0,0,1-3.93,13q-2.73,6.9-9.38,20.61t-12.21,28.18q-5.53,14.47-10.68,29.14T302.54,343.74Zm97.62,31.44q-6-14.19-7.77-21.19t-2.82-33.64q-1.11-26.64-6.45-43.42a130.46,130.46,0,0,1-6.05-34.7q-.72-17.92,4.43-22.63T395,215.1q8.36.19,11.19,8.24t8.37,24a285.53,285.53,0,0,1,9.28,33q3.74,17.07,7,33.55,1.2,10,3,26.65t2.32,24.83q.51,8.15-1.31,10.64T428,380a47.67,47.67,0,0,1-13,1.63Q407,381.71,400.16,375.18Zm24.4-128.26q-5.44-1.72-8.26-8.91a54.8,54.8,0,0,1-3.43-16.68q-.62-9.5,4.64-11a8.79,8.79,0,0,1,9.27,2.49q4,4,5.55,13.32t.6,13.13Q432,243.09,424.56,246.92Zm23.2-11.12q-7.67-4.22-9.78-8t-3.43-11.79q-1.32-8.06.3-10.16c1.08-1.41,3.29-2.14,6.66-2.21s5.64,1.09,6.85,3.45,2.43,7.1,3.63,14.19S451.79,233.25,447.76,235.8Z"/><path class="cls-2" d="M484.87,387.07q-9.67-1.92-7.86-9.4a34.12,34.12,0,0,1,7.05-13.8,126.45,126.45,0,0,1,11.7-12.27q6.45-5.94,14-13.52a138.38,138.38,0,0,0,14.72-17.63q7.17-10.06,14.12-20.61t9.89-15.72q2.91-5.19.9-15.92-10.08-6.9-35.49-13.8-5.65,3.07-12.31,15a68.79,68.79,0,0,1-16.13,19.84h-4.24q-15.53-4.41-16.14-10a15.4,15.4,0,0,1,3-10.73q3.63-5.18,9-17.45t9.37-24q4-11.7,7.47-17.26t11.7-2.59q8.27,3,14.72,16.4A149.28,149.28,0,0,0,539,228.52q10,1.92,20.06,3.45t14.32,4.22a19,19,0,0,1,6.86,8.24,104.54,104.54,0,0,1-.91,22.91q-1.71,11.61-10.69,32.88a229.76,229.76,0,0,1-22.38,40.83q-13.42,19.56-26.53,38.54Q509.28,386.49,484.87,387.07Z"/><path class="cls-2" d="M609.72,387.45q-6.47-3.07-7.46-5.56t1.11-13.13q2.11-10.65.9-79.85l-1-14.38q-2.41-52.33-3.52-59.43t5.54-10.55q10.08-.77,15.43.2a64.35,64.35,0,0,1,12.61,3.93q7.26,3,9.88,8.53,2.82,30.67,0,47.16a144.81,144.81,0,0,0,13.51,14.09Q664,285.08,676.78,296t15.43,19.94q2.63,9,.71,12t-10.19,6.62a18.75,18.75,0,0,1-16.13,0q-3.24-2.31-9.69-10T639.37,312.3q.4,27.6,0,47.54t-1.51,23.49c-.75,2.36-3.53,3.86-8.38,4.5Z"/></g><path class="cls-3" d="M224.29,192.75H127.05a7.27,7.27,0,0,0-5.15,2.13L75.81,241a7.31,7.31,0,0,0-2.13,5.15v16.27a7.31,7.31,0,0,0,2.13,5.15l56.66,56.66a7.31,7.31,0,0,0,5.15,2.13h86.9a7.28,7.28,0,0,0,7.28-7.28v-1.26a7.28,7.28,0,0,0-2.14-5.15L210.12,293.1A7.28,7.28,0,0,0,205,291H162.64a7.26,7.26,0,0,1-5.15-2.13l-30.3-30.29a7.29,7.29,0,0,1,0-10.3L146.45,229a7.25,7.25,0,0,1,5.15-2.14h54.11a7.24,7.24,0,0,0,5.15-2.13l18.55-18.55a7.3,7.3,0,0,0,2.13-4.93l0-1A7.28,7.28,0,0,0,224.29,192.75Z"/><path class="cls-4" d="M354.06,326.33H267.92a6.61,6.61,0,0,1-4.68-1.94l-57.67-57.66a6.62,6.62,0,0,1-1.93-4.68v-6.29a6.61,6.61,0,0,1,1.93-4.68l56.33-56.33a6.63,6.63,0,0,1,4.68-1.94h141a6.61,6.61,0,0,1,4.68,1.94l117,117a6.59,6.59,0,0,1,1.94,4.68v2.88a6.62,6.62,0,0,1-6.62,6.63H485.85a6.63,6.63,0,0,1-4.68-1.94l-92.78-92.79a6.66,6.66,0,0,0-4.69-1.94H291.07a6.63,6.63,0,0,0-4.68,1.94l-23.68,23.68a6.63,6.63,0,0,0,0,9.36l23.11,23.11a6.63,6.63,0,0,0,4.68,1.94H334a6.61,6.61,0,0,1,4.68,1.94l20.06,20.06a6.59,6.59,0,0,1,1.94,4.59l.05,3.73A6.62,6.62,0,0,1,354.06,326.33Z"/><path class="cls-5" d="M356,248.18v39a7,7,0,0,0,2.06,5l31.8,31.79a7,7,0,0,0,5,2.06h39a7,7,0,0,0,7-7v-3.52a7,7,0,0,0-2.06-5l-31.6-31.6a7,7,0,0,1-2.06-5v-6.09a7,7,0,0,0-2.06-5L383.52,243.3a7.06,7.06,0,0,0-4.93-2.05l-15.5-.1A7,7,0,0,0,356,248.18Z"/><path class="cls-6" d="M448.2,192.81h39.31a6.77,6.77,0,0,1,4.79,2L609,311.51a6.77,6.77,0,0,1,2,4.79v2.87a6.78,6.78,0,0,1-6.77,6.77H564.55a6.79,6.79,0,0,1-4.79-2L443.4,207.59a6.77,6.77,0,0,1-2-4.82v-3.22A6.78,6.78,0,0,1,448.2,192.81Z"/><path class="cls-7" d="M609.44,89.08l-16.58,16.57a5.34,5.34,0,0,1-3.77,1.58H552.85l-9.39,9.4h21.22a5.28,5.28,0,0,1,3.77,1.56l1.61,1.61a5.35,5.35,0,0,1,0,7.57l-16.57,16.57a5.34,5.34,0,0,1-3.78,1.56H514.59l-9.24,9.24h80.39a5.31,5.31,0,0,1,3.77,1.55l1.61,1.61a5.37,5.37,0,0,1,0,7.58l-16.57,16.57a5.4,5.4,0,0,1-3.78,1.56h-101a5.67,5.67,0,0,1-.71-.06H443a5.36,5.36,0,0,1-5.36-5.35v-2.27a5.42,5.42,0,0,1,1.58-3.78l92.24-92.23a5.3,5.3,0,0,1,3.77-1.56h68.85a5.34,5.34,0,0,1,3.78,1.56l1.61,1.61A5.35,5.35,0,0,1,609.44,89.08Z"/><path class="cls-8" d="M109,323.06l-1.58,1.61A4.72,4.72,0,0,1,104,326.1H69.9a4.72,4.72,0,0,1-3.39-1.43l-1.61-1.61a4.78,4.78,0,0,1,0-6.73l14.61-14.62a4.81,4.81,0,0,1,3.37-1.41H91a4.82,4.82,0,0,1,3.39,1.41L109,316.33A4.76,4.76,0,0,1,109,323.06Z"/><path class="cls-7" d="M499.26,78.35H468.2a5.35,5.35,0,0,0-3.78,1.57l-92.24,92.23a5.38,5.38,0,0,0-1.56,3.78v2.27a5.34,5.34,0,0,0,5.35,5.35h31.35A5.31,5.31,0,0,0,411.1,182l92-91.95a5.33,5.33,0,0,0,1.56-3.81V83.67A5.36,5.36,0,0,0,499.26,78.35Z"/><path class="cls-7" d="M305,180.18a4.55,4.55,0,0,1-.36-1.59A6.45,6.45,0,0,0,305,180.18Z"/><path class="cls-7" d="M438.64,83.72V86.2a5.42,5.42,0,0,1-1.56,3.85L345.14,182a5.41,5.41,0,0,1-3.8,1.58H310a1.72,1.72,0,0,1-.32,0,1.31,1.31,0,0,1-.34,0,5.32,5.32,0,0,1-3.51-1.93,5,5,0,0,1-.85-1.39,6.45,6.45,0,0,1-.36-1.59,3.38,3.38,0,0,1,0-.55V83.85a5.31,5.31,0,0,1,5.09-5.49H335a5.3,5.3,0,0,1,5.1,5.49v54.42l58.32-58.35a5.5,5.5,0,0,1,3.83-1.56h31A5.39,5.39,0,0,1,438.64,83.72Z"/><path class="cls-7" d="M309.38,183.5a4.78,4.78,0,0,1-3.51-1.93A5.32,5.32,0,0,0,309.38,183.5Z"/><path class="cls-7" d="M294,83.85v94.32a6.14,6.14,0,0,1-.39,2,4.77,4.77,0,0,1-.29.6l-.24.4a5.47,5.47,0,0,1-3.38,2.27,4.23,4.23,0,0,1-.79.08,1.42,1.42,0,0,1-.29,0h-31.3a5.41,5.41,0,0,1-3.8-1.58L161.57,90.05A5.54,5.54,0,0,1,160,86.2l0-2.48a5.37,5.37,0,0,1,5.38-5.36h31a5.37,5.37,0,0,1,3.8,1.56l58.33,58.35v-31h-6.65c-2.72,0-4.94-1.87-4.94-4.14V82.51c0-2.3,2.22-4.15,4.94-4.15h37.18a1.71,1.71,0,0,1,.39,0A5.36,5.36,0,0,1,294,83.85Z"/><path class="cls-7" d="M294,178.17a5.14,5.14,0,0,1-.39,2A6.14,6.14,0,0,0,294,178.17Z"/><path class="cls-7" d="M293.07,181.18a4.9,4.9,0,0,1-3.38,2.27A5.47,5.47,0,0,0,293.07,181.18Z"/><path class="cls-7" d="M227.25,175.72l0,2.53a5.35,5.35,0,0,1-5.36,5.33H73.58a5.3,5.3,0,0,1-3.8-1.58l-1.58-1.59a5.32,5.32,0,0,1,0-7.57l22.17-22.17a5.31,5.31,0,0,1,3.77-1.55h60l-36.28-36.27H99v14.73a5.29,5.29,0,0,1-5.09,5.49H68.62a5.29,5.29,0,0,1-5.09-5.49V86.17a2.82,2.82,0,0,1,0-.42,5.32,5.32,0,0,1,1.51-4L66.85,80a5.3,5.3,0,0,1,3.8-1.58h59.28a5.36,5.36,0,0,1,3.8,1.56l91.94,91.94A5.51,5.51,0,0,1,227.25,175.72Z"/></g></g></svg>