<svg xmlns="http://www.w3.org/2000/svg" viewBox="0 0 929 309"><defs><style>.cls-1{fill:#b5b5b5;opacity:0;}.cls-2{fill:#f26722;}.cls-3,.cls-9{font-size:17px;}.cls-3{font-family:Roobert-Bold, Roobert;font-weight:700;}.cls-4{letter-spacing:-0.01em;}.cls-5{letter-spacing:0em;}.cls-6{letter-spacing:0em;}.cls-7{letter-spacing:0em;}.cls-8{letter-spacing:-0.03em;}.cls-9{font-family:Roobert-Medium, Roobert;font-weight:500;}.cls-10{letter-spacing:-0.02em;}.cls-11{letter-spacing:-0.02em;}.cls-12{letter-spacing:0em;}.cls-13{letter-spacing:-0.01em;}.cls-14{fill:#a30711;}.cls-15{fill:#d3203d;}.cls-16{fill:#dd525d;}.cls-17{letter-spacing:-0.02em;}.cls-18{letter-spacing:-0.03em;}.cls-19{letter-spacing:-0.07em;}.cls-20{letter-spacing:-0.05em;}.cls-21{letter-spacing:-0.04em;}.cls-22{letter-spacing:-0.02em;}.cls-23{letter-spacing:0em;}.cls-24{letter-spacing:-0.01em;}.cls-25{letter-spacing:0em;}.cls-26{fill:#656a70;}.cls-27{letter-spacing:-0.01em;}.cls-28{letter-spacing:0.03em;}.cls-29{letter-spacing:-0.08em;}.cls-30{letter-spacing:0em;}.cls-31{letter-spacing:-0.02em;}.cls-32{letter-spacing:-0.02em;}.cls-33{letter-spacing:0em;}.cls-34{letter-spacing:0.01em;}.cls-35{letter-spacing:-0.01em;}.cls-36{letter-spacing:-0.03em;}.cls-37{fill:#34057c;fill-rule:evenodd;}.cls-38{letter-spacing:-0.1em;}.cls-39{letter-spacing:-0.02em;}.cls-40{letter-spacing:0em;}.cls-41{letter-spacing:-0.03em;}.cls-42{letter-spacing:-0.02em;}</style></defs><g id="Layer_2" data-name="Layer 2"><g id="Layer_1-2" data-name="Layer 1"><g id="xmrscan"><rect class="cls-1" width="391" height="114"/><g id="Layer_2-2" data-name="Layer 2"><g id="Layer_1-2-2" data-name="Layer 1-2"><path class="cls-2" d="M98.65,23.37A33.81,33.81,0,0,0,64.86,57.23a34.25,34.25,0,0,0,1.69,10.59H76.69V39.38l22,22,22-22V67.82h10.14a33.83,33.83,0,0,0-21.44-42.75,34.37,34.37,0,0,0-10.66-1.7Z"/><path class="cls-2" d="M93.62,66.44,84,56.83V74.75H69.76a33.8,33.8,0,0,0,46.47,11.3,33.41,33.41,0,0,0,11.31-11.3H113.29V56.83l-9.54,9.61-5,5Z"/></g></g><text class="cls-3" transform="translate(167.92 76.82)">xm<tspan class="cls-4" x="24.11" y="0">r</tspan><tspan class="cls-5" x="30.5" y="0">s</tspan><tspan class="cls-6" x="38.27" y="0">c</tspan><tspan class="cls-7" x="47.67" y="0">an</tspan><tspan class="cls-8" x="66.49" y="0">.</tspan><tspan x="70.77" y="0">com</tspan></text><text class="cls-9" transform="translate(167.92 50.82)">Mone<tspan class="cls-10" x="43.38" y="0">r</tspan><tspan class="cls-7" x="49.35" y="0">o Bloc</tspan><tspan class="cls-11" x="96.85" y="0">k</tspan><tspan class="cls-12" x="105.57" y="0">c</tspan><tspan class="cls-13" x="114.87" y="0">h</tspan><tspan x="124.54" y="0">ain Explo</tspan><tspan class="cls-10" x="193" y="0">r</tspan><tspan x="198.97" y="0">er</tspan></text></g><g id="covid"><rect class="cls-1" x="511" width="399" height="114"/><g id="Gruppe_43" data-name="Gruppe 43"><g id="Gruppe_42" data-name="Gruppe 42"><g id="Gruppe_7" data-name="Gruppe 7"><g id="Gruppe_6" data-name="Gruppe 6"><path id="Pfad_49" data-name="Pfad 49" class="cls-14" d="M595.46,29.82c-.73,1.52-1.59,3-2.24,4.55-.53,1.18-1.45,3.16-1,4.47a.77.77,0,0,0,1,.4c1.18-.66,1.77-2.77,2.17-4,.53-1.58.86-3.29,1.32-4.87a.68.68,0,0,0-.41-.87.67.67,0,0,0-.84.34Z"/></g><path id="Pfad_50" data-name="Pfad 50" class="cls-14" d="M600.13,30.55a3.48,3.48,0,1,1-2-4.48h0a3.48,3.48,0,0,1,2,4.48Z"/></g><g id="Gruppe_9" data-name="Gruppe 9"><g id="Gruppe_8" data-name="Gruppe 8"><path id="Pfad_51" data-name="Pfad 51" class="cls-14" d="M574.85,30.15c.39,1.65.72,3.3,1.18,4.94.4,1.25.92,3.36,2.11,4a.76.76,0,0,0,1-.33c.52-1.25-.4-3.29-.86-4.48-.66-1.58-1.45-3.09-2.11-4.61C575.7,29,574.65,29.3,574.85,30.15Z"/></g><path id="Pfad_52" data-name="Pfad 52" class="cls-14" d="M579.46,29.17a3.55,3.55,0,0,1-2.11,3.09c-.07,0-.13.07-.2.07a3.5,3.5,0,0,1-3.82-1,4.85,4.85,0,0,1-.66-1.12,3.43,3.43,0,0,1,2.05-4.39h0l.06,0a3.53,3.53,0,0,1,4.48,2.11A5.19,5.19,0,0,1,579.46,29.17Z"/></g><g id="Gruppe_11" data-name="Gruppe 11"><g id="Gruppe_10" data-name="Gruppe 10"><path id="Pfad_53" data-name="Pfad 53" class="cls-14" d="M559.24,43.72c1.38,1,2.7,2.1,4.08,3,1.06.72,2.9,2,4.22,1.77a.72.72,0,0,0,.54-.87h0s0,0,0,0c-.39-1.32-2.43-2.24-3.55-2.83-1.52-.79-3.1-1.45-4.61-2.17a.65.65,0,1,0-.66,1.12Z"/></g><path id="Pfad_54" data-name="Pfad 54" class="cls-14" d="M562.86,43.92c-.07.06-.07.13-.13.19a3,3,0,0,1-1.32,1.25,3.43,3.43,0,0,1-2.43.33,3.15,3.15,0,0,1-1-.39,3.5,3.5,0,0,1,3.48-6.08l.07,0,.07.05a2.81,2.81,0,0,1,.85.72A3.58,3.58,0,0,1,562.86,43.92Z"/></g><g id="Gruppe_13" data-name="Gruppe 13"><g id="Gruppe_12" data-name="Gruppe 12"><path id="Pfad_55" data-name="Pfad 55" class="cls-14" d="M556,64.06c1.71-.13,3.35-.13,5.07-.33,1.24-.13,3.48-.33,4.34-1.38a.75.75,0,0,0-.17-1h0c-1.12-.73-3.3-.2-4.55.06-1.64.33-3.29.86-4.87,1.32a.7.7,0,0,0,.2,1.38Z"/></g><path id="Pfad_56" data-name="Pfad 56" class="cls-14" d="M559.18,63.93A3.58,3.58,0,0,1,557.27,66a3.85,3.85,0,0,1-.79.26,3.5,3.5,0,1,1-1.12-6.91,2,2,0,0,1,.92,0,3.46,3.46,0,0,1,3,2.43c.07.14.07.33.13.46A3.55,3.55,0,0,1,559.18,63.93Z"/></g><g id="Gruppe_15" data-name="Gruppe 15"><g id="Gruppe_14" data-name="Gruppe 14"><path id="Pfad_57" data-name="Pfad 57" class="cls-14" d="M566.62,81.77c1.24-1.18,2.5-2.3,3.68-3.49.86-.92,2.51-2.5,2.44-3.82a.79.79,0,0,0-.79-.72c-1.32.2-2.64,2-3.42,3-1.06,1.32-2,2.76-2.9,4.15a.65.65,0,0,0,.1.92A.66.66,0,0,0,566.62,81.77Z"/></g><path id="Pfad_58" data-name="Pfad 58" class="cls-14" d="M569.12,82.83a3.42,3.42,0,0,1-.4.52,3.5,3.5,0,0,1-5.38-4.48l0-.06a1.68,1.68,0,0,1,.53-.46,3.58,3.58,0,0,1,3.62-.39,4.05,4.05,0,0,1,1.51,1.51A3,3,0,0,1,569.12,82.83Z"/></g><g id="Gruppe_17-2" data-name="Gruppe 17-2"><g id="Gruppe_16" data-name="Gruppe 16"><path id="Pfad_59" data-name="Pfad 59" class="cls-14" d="M586.11,88.49c.19-1.65.46-3.36.59-5.07.07-1.25.33-3.49-.59-4.54a.75.75,0,0,0-1.05,0h0v0c-.92,1-.72,3.22-.72,4.47.06,1.72.26,3.36.46,5.07a.66.66,0,1,0,1.32.07Z"/></g><path id="Pfad_60" data-name="Pfad 60" class="cls-14" d="M588.74,89a3.48,3.48,0,0,1-3.52,3.43,3.43,3.43,0,0,1-1.68-.47,3.55,3.55,0,0,1-1.78-3.09,3.31,3.31,0,0,1,.2-1.12c.13-.33.26-.59.39-.86a3.63,3.63,0,0,1,2.11-1.44,3,3,0,0,1,.79-.07,3.39,3.39,0,0,1,1.18.19A3.86,3.86,0,0,1,588.74,89Z"/></g><g id="Gruppe_19" data-name="Gruppe 19"><g id="Gruppe_18" data-name="Gruppe 18"><path id="Pfad_61" data-name="Pfad 61" class="cls-14" d="M605.4,81.12c-.92-1.38-1.78-2.9-2.83-4.22-.79-1.05-2.05-2.89-3.36-3.09a.79.79,0,0,0-.86.66c-.06,1.38,1.52,3,2.37,3.88,1.12,1.25,2.37,2.37,3.56,3.62a.71.71,0,0,0,1.12-.85Z"/></g><path id="Pfad_62" data-name="Pfad 62" class="cls-14" d="M602.7,83.75a3.46,3.46,0,1,1,4.87.46h0a3.4,3.4,0,0,1-4.79-.36h0Z"/></g><g id="Gruppe_21" data-name="Gruppe 21"><g id="Gruppe_20" data-name="Gruppe 20"><path id="Pfad_63" data-name="Pfad 63" class="cls-14" d="M615.41,63.08c-1.65-.47-3.23-1.06-4.88-1.45-1.25-.33-3.42-.93-4.54-.2a.74.74,0,0,0-.21,1v0c.86,1.06,3,1.32,4.35,1.45,1.64.26,3.35.33,5.07.46a.66.66,0,0,0,.74-.58.68.68,0,0,0-.55-.74Z"/></g><path id="Pfad_64" data-name="Pfad 64" class="cls-14" d="M615.41,67a3.49,3.49,0,1,1,4.08-2.78h0A3.53,3.53,0,0,1,615.41,67Z"/></g><g id="Gruppe_23" data-name="Gruppe 23"><g id="Gruppe_22" data-name="Gruppe 22"><path id="Pfad_65" data-name="Pfad 65" class="cls-14" d="M611.46,42.79c-1.52.66-3.17,1.25-4.68,2-1.12.6-3.16,1.52-3.62,2.77a.73.73,0,0,0,.47.91h.06c1.31.27,3.16-1,4.27-1.64,1.45-.93,2.77-1.91,4.15-2.9a.68.68,0,0,0-.65-1.19Z"/></g><path id="Pfad_66" data-name="Pfad 66" class="cls-14" d="M614.42,46a3.48,3.48,0,1,1,1.32-4.74h0A3.51,3.51,0,0,1,614.42,46Z"/></g><path id="Pfad_67" data-name="Pfad 67" class="cls-15" d="M615.8,58.27a16.17,16.17,0,0,1-.07,1.84c-.06,1-.2,2-.33,3a8.43,8.43,0,0,1-.26,1.31,14,14,0,0,1-.59,2.31,33.5,33.5,0,0,1-2,4.94,18.76,18.76,0,0,1-1.38,2.43,25.27,25.27,0,0,1-3.69,4.68c-.72.72-1.45,1.45-2.24,2.1a6.67,6.67,0,0,1-1.12.86c-.59.46-1.25.92-1.91,1.38a30,30,0,0,1-4.54,2.44,17.44,17.44,0,0,1-2.64,1,30.77,30.77,0,0,1-6.52,1.31c-.79.07-1.58.14-2.43.14h-1.52c-.92-.07-1.84-.14-2.76-.27a26.05,26.05,0,0,1-4.54-1c-.93-.27-1.78-.6-2.64-.93a28.59,28.59,0,0,1-5.6-3,21.89,21.89,0,0,1-2-1.51c-.4-.33-.79-.66-1.12-1-.69-.62-1.35-1.28-2-2a32.06,32.06,0,0,1-2.89-3.76c-.53-.79-1-1.58-1.45-2.43A27.49,27.49,0,0,1,557.26,66a19.38,19.38,0,0,1-.46-2c-.07-.53-.2-1-.27-1.52a25.57,25.57,0,0,1-.26-3.16V58.21a32.53,32.53,0,0,1,.2-3.56c.13-.92.26-1.84.46-2.77A28.94,28.94,0,0,1,559,45.63l.79-1.58c.26-.46.46-.86.72-1.32A20.23,20.23,0,0,1,562.46,40a31.7,31.7,0,0,1,3.16-3.49,21.2,21.2,0,0,1,2.17-1.85,34.17,34.17,0,0,1,5.53-3.42c.53-.26,1.06-.46,1.65-.73s.92-.32,1.38-.52a27.13,27.13,0,0,1,3.16-.92,24.25,24.25,0,0,1,4.94-.66,13,13,0,0,1,1.65-.07h1.18a29.92,29.92,0,0,1,4.22.46c.65.13,1.31.26,2,.46l2,.59a12.12,12.12,0,0,1,1.32.46c.92.4,1.84.79,2.77,1.25A27.66,27.66,0,0,1,604,34.3l2.17,1.78a28.46,28.46,0,0,1,4,4.47,17.48,17.48,0,0,1,1.44,2.18c.2.39.47.79.66,1.18.46.79.79,1.58,1.19,2.44a26.55,26.55,0,0,1,1.64,5.07c.2.92.4,1.84.53,2.76C615.73,55.57,615.8,56.89,615.8,58.27Z"/><g id="Gruppe_25" data-name="Gruppe 25"><g id="Gruppe_24" data-name="Gruppe 24"><path id="Pfad_68" data-name="Pfad 68" class="cls-15" d="M586.43,33.71a.9.9,0,0,1-1.24,0c-.73-.79-.86-2.24-.86-3.56,0-.59.07-1.18.07-1.64v-.14c.07-.85.13-1.71.19-2.63.14-1.12.27-2.31.4-3.43a.81.81,0,0,1,.85-.79.83.83,0,0,1,.8.79l.39,3.56c.07.79.13,1.65.2,2.44v.13c0,.33.07.66.07,1C587.29,31,587.22,32.79,586.43,33.71Z"/></g><path id="Pfad_69" data-name="Pfad 69" class="cls-15" d="M590.19,21.86a4.1,4.1,0,0,1-3.23,4A4.76,4.76,0,0,1,586,26a3.59,3.59,0,0,1-1.45-.27,4.15,4.15,0,1,1,5.6-3.88Z"/></g><g id="Gruppe_27" data-name="Gruppe 27"><g id="Gruppe_26" data-name="Gruppe 26"><path id="Pfad_70" data-name="Pfad 70" class="cls-15" d="M570.57,39.24a.9.9,0,0,1-1,.79h0a3,3,0,0,1-1.51-.79,19.36,19.36,0,0,1-2.44-2.76c0-.07-.07-.07-.07-.14-.53-.72-1-1.38-1.51-2.1-.66-.93-1.25-1.91-1.91-2.83a.82.82,0,0,1,1.25-1.06c.85.86,1.71,1.65,2.56,2.5a20.48,20.48,0,0,1,1.71,1.78l.07.07A16.08,16.08,0,0,1,570,37.47,3.19,3.19,0,0,1,570.57,39.24Z"/></g><path id="Pfad_71" data-name="Pfad 71" class="cls-15" d="M566,32.85a3.18,3.18,0,0,1-.66.66,3.43,3.43,0,0,1-1.25.73,4.16,4.16,0,1,1,1.78-6.59A4.26,4.26,0,0,1,566,32.85Z"/></g><g id="Gruppe_29" data-name="Gruppe 29"><g id="Gruppe_28" data-name="Gruppe 28"><path id="Pfad_72" data-name="Pfad 72" class="cls-15" d="M561.74,54.84a3.06,3.06,0,0,1-1.77.4,17.84,17.84,0,0,1-3.49-.53c-.07,0-.07,0-.14-.06-.85-.2-1.71-.4-2.5-.66l-3.29-1a.8.8,0,0,1,.26-1.58l3.56.2,2.44.2h.13a18,18,0,0,1,3.49.65,3.33,3.33,0,0,1,1.58,1C562.2,54,562.14,54.65,561.74,54.84Z"/></g><path id="Pfad_73" data-name="Pfad 73" class="cls-15" d="M554.24,52.67a3.51,3.51,0,0,1-.53,1.38,4.12,4.12,0,1,1,.59-2.3A2.2,2.2,0,0,1,554.24,52.67Z"/></g><g id="Gruppe_31" data-name="Gruppe 31"><g id="Gruppe_30" data-name="Gruppe 30"><path id="Pfad_74" data-name="Pfad 74" class="cls-15" d="M565.23,71.31a3,3,0,0,1-.85,1.24,13.72,13.72,0,0,1-3.29,2c-.07,0-.07.06-.14.06-.79.4-1.58.79-2.37,1.12l-3.16,1.39a.8.8,0,0,1-.79-1.39c1-.66,1.91-1.38,2.9-2.1a22.18,22.18,0,0,1,2-1.39l.07-.07a15.89,15.89,0,0,1,3.42-1.84,2.47,2.47,0,0,1,1.52-.13.83.83,0,0,1,.68,1h0Z"/></g><path id="Pfad_75" data-name="Pfad 75" class="cls-15" d="M556.61,80.06a4.14,4.14,0,1,1,.92-6.45,4.06,4.06,0,0,1,.59.79,6.25,6.25,0,0,1,.53,1.38A4.26,4.26,0,0,1,556.61,80.06Z"/></g><g id="Gruppe_33" data-name="Gruppe 33"><g id="Gruppe_32" data-name="Gruppe 32"><path id="Pfad_76" data-name="Pfad 76" class="cls-15" d="M578.14,85a8.08,8.08,0,0,1-.73,1.71c0,.07-.06.07-.06.14-.33.79-.73,1.58-1.12,2.37-.53,1-1.06,2-1.52,3.09a.8.8,0,0,1-1.51-.53c.26-1.11.52-2.3.85-3.49.2-.79.4-1.58.66-2.37,0-.06,0-.06.07-.13.23-.78.49-1.55.79-2.3a4.8,4.8,0,0,1,1.71-2.37.92.92,0,0,1,1.19.46A5.32,5.32,0,0,1,578.14,85Z"/></g><path id="Pfad_77" data-name="Pfad 77" class="cls-15" d="M577.48,93.89a4.17,4.17,0,1,1-3.43-5.53l.93.2a3.77,3.77,0,0,1,1.24.72A4.16,4.16,0,0,1,577.48,93.89Z"/></g><g id="Gruppe_35" data-name="Gruppe 35"><g id="Gruppe_34" data-name="Gruppe 34"><path id="Pfad_78" data-name="Pfad 78" class="cls-15" d="M599.27,91.65c-.52-2-.92-4-1.51-5.86-.46-1.45-1.12-4-2.57-4.81a.91.91,0,0,0-1.18.47c-.59,1.51.53,3.88,1.12,5.33.79,1.84,1.78,3.62,2.63,5.46a.82.82,0,0,0,1.52-.59Z"/></g><path id="Pfad_79" data-name="Pfad 79" class="cls-15" d="M594.53,93.89a4.17,4.17,0,1,1,5.34,2.5h0A4.21,4.21,0,0,1,594.53,93.89Z"/></g><g id="Gruppe_37" data-name="Gruppe 37"><g id="Gruppe_36" data-name="Gruppe 36"><path id="Pfad_80" data-name="Pfad 80" class="cls-15" d="M617.64,75.26c-1.64-1.19-3.22-2.44-4.93-3.49-1.32-.86-3.43-2.37-5.07-2a.91.91,0,0,0-.66,1.11c.52,1.52,2.89,2.64,4.28,3.36,1.78.92,3.68,1.65,5.53,2.5a.83.83,0,0,0,1.13-.36A.82.82,0,0,0,617.64,75.26Z"/></g><path id="Pfad_81" data-name="Pfad 81" class="cls-15" d="M615.47,80.06a4.14,4.14,0,1,1,5.66-1.51h0A4.17,4.17,0,0,1,615.47,80.06Z"/></g><g id="Gruppe_39" data-name="Gruppe 39"><g id="Gruppe_38" data-name="Gruppe 38"><path id="Pfad_82" data-name="Pfad 82" class="cls-15" d="M621.2,51c-2,.13-4,.2-6,.46-1.52.2-4.15.4-5.14,1.71a.92.92,0,0,0,.2,1.25c1.38.86,4,.13,5.4-.2,2-.46,3.88-1.12,5.79-1.64A.8.8,0,0,0,621.2,51Z"/></g><path id="Pfad_83" data-name="Pfad 83" class="cls-15" d="M622.58,56a4.15,4.15,0,1,1,3.36-4.81h0A4.16,4.16,0,0,1,622.58,56Z"/></g><g id="Gruppe_41" data-name="Gruppe 41"><g id="Gruppe_40" data-name="Gruppe 40"><path id="Pfad_84" data-name="Pfad 84" class="cls-15" d="M608.29,30.09c-1.44,1.38-3,2.76-4.34,4.21-1.05,1.12-2.9,3-2.9,4.61a.9.9,0,0,0,1,.79h0c1.58-.26,3.09-2.43,4-3.62,1.19-1.58,2.31-3.36,3.43-5a.78.78,0,0,0-.1-1.09.76.76,0,0,0-1.06.07Z"/></g><path id="Pfad_85" data-name="Pfad 85" class="cls-15" d="M612.57,33.05a4.16,4.16,0,1,1-.53-5.86h0a4.11,4.11,0,0,1,.6,5.78h0A.27.27,0,0,1,612.57,33.05Z"/></g><path id="Pfad_86" data-name="Pfad 86" class="cls-16" d="M589.2,45.3A5.27,5.27,0,1,1,583.92,40h0a5.26,5.26,0,0,1,5.27,5.26Z"/><path id="Pfad_87" data-name="Pfad 87" class="cls-16" d="M577.35,54.84a3.45,3.45,0,0,1-3.43,3.43,3.4,3.4,0,0,1-3.42-3.37h0v-.06a3.43,3.43,0,0,1,6.85,0Z"/><circle id="Ellipse_1" data-name="Ellipse 1" class="cls-16" cx="597.23" cy="64.11" r="8.03"/></g></g><text class="cls-3" transform="translate(665.92 76.82)">c<tspan class="cls-17" x="9.43" y="0">o</tspan><tspan x="18.94" y="0">vid</tspan><tspan class="cls-8" x="41.87" y="0">.</tspan><tspan x="46.15" y="0">d</tspan><tspan class="cls-17" x="56.34" y="0">n</tspan><tspan x="65.86" y="0">vi</tspan><tspan class="cls-18" x="78.61" y="0">e.</tspan><tspan x="91.71" y="0">com</tspan></text><text class="cls-9" transform="translate(664.92 50.82)"><tspan class="cls-19">W</tspan><tspan x="15.84" y="0">orldwide C</tspan><tspan class="cls-20" x="98.33" y="0">o</tspan><tspan class="cls-7" x="107.47" y="0">ViD</tspan><tspan class="cls-21" x="133.6" y="0">-</tspan><tspan x="140.98" y="0">19 </tspan><tspan class="cls-6" x="161.75" y="0">S</tspan><tspan class="cls-22" x="171.77" y="0">t</tspan><tspan class="cls-23" x="178.09" y="0">a</tspan><tspan x="186.95" y="0">ti</tspan><tspan class="cls-24" x="197.26" y="0">s</tspan><tspan x="205.08" y="0">ti</tspan><tspan class="cls-25" x="215.4" y="0">c</tspan><tspan class="cls-12" x="224.62" y="0">s</tspan></text></g><g id="weather"><rect class="cls-1" y="195" width="398" height="114"/><path class="cls-26" d="M137.1,259.46A15.6,15.6,0,0,1,121.7,274H68a15.62,15.62,0,0,1-3.45-30.83,10.62,10.62,0,0,1,15.88-11,23.65,23.65,0,0,1,42.2,10.68A15.61,15.61,0,0,1,137.1,259.46Z"/><text class="cls-3" transform="translate(168.92 268.03)"><tspan class="cls-10">w</tspan><tspan class="cls-6" x="12.85" y="0">e</tspan><tspan class="cls-27" x="22.15" y="0">a</tspan><tspan class="cls-28" x="30.87" y="0">t</tspan><tspan class="cls-7" x="38.42" y="0">he</tspan><tspan class="cls-29" x="57.78" y="0">r</tspan><tspan class="cls-8" x="63.02" y="0">.</tspan><tspan x="67.3" y="0">d</tspan><tspan class="cls-17" x="77.49" y="0">n</tspan><tspan x="87.01" y="0">vi</tspan><tspan class="cls-8" x="99.75" y="0">e.</tspan><tspan x="112.86" y="0">com</tspan></text><text class="cls-9" transform="translate(168.92 242.03)"><tspan class="cls-30">C</tspan><tspan x="12.12" y="0">ur</tspan><tspan class="cls-31" x="28.15" y="0">r</tspan><tspan x="34.12" y="0">e</tspan><tspan class="cls-32" x="43.5" y="0">n</tspan><tspan x="52.9" y="0">t </tspan><tspan class="cls-19" x="63.39" y="0">W</tspan><tspan class="cls-33" x="79.24" y="0">e</tspan><tspan class="cls-25" x="88.55" y="0">a</tspan><tspan class="cls-34" x="97.41" y="0">t</tspan><tspan x="104.21" y="0">her I</tspan><tspan class="cls-35" x="137.8" y="0">n</tspan><tspan class="cls-36" x="147.25" y="0">f</tspan><tspan class="cls-7" x="153.36" y="0">or</tspan><tspan class="cls-24" x="169.62" y="0">m</tspan><tspan class="cls-25" x="184.36" y="0">a</tspan><tspan x="193.22" y="0">tion</tspan></text></g><g id="github"><rect class="cls-1" x="511" y="195" width="418" height="114"/><path id="GitHub-2" data-name="GitHub" class="cls-37" d="M587.34,215.8A33.47,33.47,0,0,0,576.68,281c1.64.21,2.25-.82,2.25-1.64V273.6c-9.22,2-11.27-4.51-11.27-4.51-1.44-3.9-3.69-4.92-3.69-4.92-3.07-2.05.21-2.05.21-2.05,3.28.2,5.12,3.48,5.12,3.48,3.08,5.13,7.79,3.69,9.64,2.87a7.12,7.12,0,0,1,2-4.51c-7.38-.82-15.17-3.69-15.17-16.6a12.73,12.73,0,0,1,3.48-9,12.18,12.18,0,0,1,.41-8.61s2.87-.82,9.23,3.49a28.67,28.67,0,0,1,8.4-1,37.71,37.71,0,0,1,8.4,1c6.36-4.3,9.23-3.49,9.23-3.49a12.93,12.93,0,0,1,.41,8.82,13.3,13.3,0,0,1,3.48,9c0,12.92-7.79,15.58-15.17,16.4,1.23,1,2.26,3.07,2.26,6.15v9.22c0,.82.61,1.85,2.25,1.64a33.47,33.47,0,0,0-10.86-65.17Z"/><text class="cls-3" transform="translate(664.92 268.03)">gi<tspan class="cls-28" x="14.43" y="0">t</tspan><tspan class="cls-25" x="21.98" y="0">h</tspan><tspan x="31.93" y="0">u</tspan><tspan class="cls-8" x="41.84" y="0">b.</tspan><tspan class="cls-12" x="55.79" y="0">com</tspan><tspan class="cls-38" x="90.22" y="0">/</tspan><tspan class="cls-12" x="96.27" y="0">d</tspan><tspan class="cls-39" x="106.45" y="0">n</tspan><tspan x="115.97" y="0">vie</tspan></text><text class="cls-9" transform="translate(664.92 242.03)">Mo<tspan class="cls-10" x="24.29" y="0">r</tspan><tspan x="30.26" y="0">e </tspan><tspan class="cls-40" x="43.55" y="0">c</tspan><tspan class="cls-12" x="52.78" y="0">an be </tspan><tspan class="cls-41" x="98.8" y="0">f</tspan><tspan x="104.91" y="0">ound on </tspan><tspan class="cls-42" x="171.88" y="0">m</tspan><tspan x="186.44" y="0">y GitHub</tspan></text></g></g></g></svg>