<svg xmlns="http://www.w3.org/2000/svg" viewBox="0 0 929 309"><defs><style>.cls-1{fill:#b5b5b5;opacity:0;}.cls-2,.cls-34{fill:#1f1f1f;}.cls-3,.cls-9{font-size:17px;}.cls-3{font-family:Roobert-Bold, Roobert;font-weight:700;}.cls-4{letter-spacing:-0.01em;}.cls-5{letter-spacing:0em;}.cls-6{letter-spacing:0em;}.cls-7{letter-spacing:0em;}.cls-8{letter-spacing:-0.03em;}.cls-9{font-family:Roobert-Medium, Roobert;font-weight:500;}.cls-10{letter-spacing:-0.02em;}.cls-11{letter-spacing:-0.02em;}.cls-12{letter-spacing:0em;}.cls-13{letter-spacing:-0.01em;}.cls-14{fill:#3a3a3a;}.cls-15{letter-spacing:-0.02em;}.cls-16{letter-spacing:-0.03em;}.cls-17{letter-spacing:-0.07em;}.cls-18{letter-spacing:-0.05em;}.cls-19{letter-spacing:-0.04em;}.cls-20{letter-spacing:-0.02em;}.cls-21{letter-spacing:0em;}.cls-22{letter-spacing:-0.01em;}.cls-23{letter-spacing:0em;}.cls-24{letter-spacing:-0.01em;}.cls-25{letter-spacing:0.03em;}.cls-26{letter-spacing:-0.08em;}.cls-27{letter-spacing:0em;}.cls-28{letter-spacing:-0.02em;}.cls-29{letter-spacing:-0.02em;}.cls-30{letter-spacing:0em;}.cls-31{letter-spacing:0.01em;}.cls-32{letter-spacing:-0.01em;}.cls-33{letter-spacing:-0.03em;}.cls-34{fill-rule:evenodd;}.cls-35{letter-spacing:-0.1em;}.cls-36{letter-spacing:-0.02em;}.cls-37{letter-spacing:0em;}.cls-38{letter-spacing:-0.03em;}.cls-39{letter-spacing:-0.02em;}</style></defs><g id="Layer_2" data-name="Layer 2"><g id="Layer_1-2" data-name="Layer 1"><g id="xmrscan"><rect class="cls-1" width="391" height="114"/><g id="Layer_2-2" data-name="Layer 2"><g id="Layer_1-2-2" data-name="Layer 1-2"><path class="cls-2" d="M70.64,5.45a51.73,51.73,0,0,0-51.7,51.8,52.31,52.31,0,0,0,2.6,16.2H37V30l33.6,33.6L104.24,30v43.5h15.5a51.76,51.76,0,0,0-32.8-65.4,52.46,52.46,0,0,0-16.3-2.6Z"/><path class="cls-2" d="M62.94,71.35l-14.7-14.7v27.4H26.44a51.73,51.73,0,0,0,71.1,17.3,51.13,51.13,0,0,0,17.3-17.3H93V56.65l-14.6,14.7-7.7,7.7Z"/></g></g><text class="cls-3" transform="translate(167.92 51.82)">xm<tspan class="cls-4" x="24.11" y="0">r</tspan><tspan class="cls-5" x="30.5" y="0">s</tspan><tspan class="cls-6" x="38.27" y="0">c</tspan><tspan class="cls-7" x="47.67" y="0">an</tspan><tspan class="cls-8" x="66.49" y="0">.</tspan><tspan x="70.77" y="0">com</tspan></text><text class="cls-9" transform="translate(167.92 72.82)">Mone<tspan class="cls-10" x="43.38" y="0">r</tspan><tspan class="cls-7" x="49.35" y="0">o Bloc</tspan><tspan class="cls-11" x="96.85" y="0">k</tspan><tspan class="cls-12" x="105.57" y="0">c</tspan><tspan class="cls-13" x="114.87" y="0">h</tspan><tspan x="124.54" y="0">ain Explo</tspan><tspan class="cls-10" x="193" y="0">r</tspan><tspan x="198.97" y="0">er</tspan></text></g><g id="covid"><rect class="cls-1" x="511" width="399" height="114"/><g id="Gruppe_43" data-name="Gruppe 43"><g id="Gruppe_42" data-name="Gruppe 42"><g id="Gruppe_7" data-name="Gruppe 7"><g id="Gruppe_6" data-name="Gruppe 6"><path id="Pfad_49" data-name="Pfad 49" d="M585.2,18.94c-1,2.12-2.21,4.24-3.13,6.35-.73,1.66-2,4.42-1.38,6.26a1.08,1.08,0,0,0,1.38.55c1.66-.92,2.49-3.86,3-5.61.73-2.21,1.2-4.6,1.84-6.81a.95.95,0,0,0-1.74-.74Z"/></g><path id="Pfad_50" data-name="Pfad 50" d="M591.74,20a4.87,4.87,0,1,1-2.86-6.26h0A4.86,4.86,0,0,1,591.73,20h0Z"/></g><g id="Gruppe_9" data-name="Gruppe 9"><g id="Gruppe_8" data-name="Gruppe 8"><path id="Pfad_51" data-name="Pfad 51" d="M556.4,19.41c.55,2.3,1,4.6,1.65,6.9.56,1.74,1.29,4.69,3,5.61a1,1,0,0,0,1.38-.46c.73-1.74-.55-4.6-1.2-6.26-.92-2.2-2-4.32-2.94-6.44C557.59,17.75,556.12,18.21,556.4,19.41Z"/></g><path id="Pfad_52" data-name="Pfad 52" d="M562.84,18a5,5,0,0,1-3,4.32c-.09,0-.18.1-.27.1A4.91,4.91,0,0,1,554.28,21a6.34,6.34,0,0,1-.92-1.57,4.78,4.78,0,0,1,2.85-6.13h0l.08,0a4.92,4.92,0,0,1,6.26,2.94A6.78,6.78,0,0,1,562.84,18Z"/></g><g id="Gruppe_11" data-name="Gruppe 11"><g id="Gruppe_10" data-name="Gruppe 10"><path id="Pfad_53" data-name="Pfad 53" d="M534.59,38.36c1.93,1.38,3.77,3,5.7,4.24,1.47,1,4.05,2.85,5.89,2.48a1,1,0,0,0,.76-1.21h0s0,0,0-.08c-.55-1.84-3.41-3.13-5-3.95-2.12-1.11-4.33-2-6.44-3a.91.91,0,1,0-.92,1.56Z"/></g><path id="Pfad_54" data-name="Pfad 54" d="M539.65,38.64c-.1.1-.1.18-.19.28a4.19,4.19,0,0,1-1.84,1.74,4.79,4.79,0,0,1-3.4.46,4.25,4.25,0,0,1-1.38-.55,4.9,4.9,0,0,1,4.86-8.5l.1.06.09.07a4.17,4.17,0,0,1,1.2,1A5,5,0,0,1,539.65,38.64Z"/></g><g id="Gruppe_13" data-name="Gruppe 13"><g id="Gruppe_12" data-name="Gruppe 12"><path id="Pfad_55" data-name="Pfad 55" d="M530.08,66.8c2.39-.19,4.69-.19,7.08-.46,1.75-.19,4.88-.46,6.08-1.93A1.05,1.05,0,0,0,543,63h0l0,0c-1.56-1-4.6-.28-6.34.09-2.31.46-4.61,1.2-6.81,1.84a1,1,0,0,0,.27,1.94Z"/></g><path id="Pfad_56" data-name="Pfad 56" d="M534.5,66.61a5,5,0,0,1-2.67,3,5.57,5.57,0,0,1-1.11.37,4.89,4.89,0,0,1-1.56-9.66,2.81,2.81,0,0,1,1.29,0,4.83,4.83,0,0,1,4.14,3.4c.09.18.09.46.18.64A4.86,4.86,0,0,1,534.5,66.61Z"/></g><g id="Gruppe_15" data-name="Gruppe 15"><g id="Gruppe_14" data-name="Gruppe 14"><path id="Pfad_57" data-name="Pfad 57" d="M544.89,91.55c1.75-1.66,3.5-3.22,5.16-4.88,1.19-1.28,3.49-3.49,3.4-5.33a1.11,1.11,0,0,0-1.1-1c-1.84.28-3.69,2.76-4.79,4.24-1.47,1.84-2.76,3.86-4,5.79a.93.93,0,0,0,.15,1.29A.91.91,0,0,0,544.89,91.55Z"/></g><path id="Pfad_58" data-name="Pfad 58" d="M548.39,93a5.58,5.58,0,0,1-.55.73,4.9,4.9,0,1,1-7.52-6.27l.06-.08a2.52,2.52,0,0,1,.74-.64,5,5,0,0,1,5.06-.55,5.65,5.65,0,0,1,2.12,2.11A4.18,4.18,0,0,1,548.39,93Z"/></g><g id="Gruppe_17-2" data-name="Gruppe 17-2"><g id="Gruppe_16" data-name="Gruppe 16"><path id="Pfad_59" data-name="Pfad 59" d="M572.13,100.94c.28-2.3.65-4.69.83-7.09.1-1.74.46-4.87-.83-6.35a1,1,0,0,0-1.45,0h0c-1.29,1.38-1,4.51-1,6.26.09,2.39.37,4.69.64,7.09a.92.92,0,1,0,1.84.09Z"/></g><path id="Pfad_60" data-name="Pfad 60" d="M575.81,101.58a4.86,4.86,0,0,1-7.27,4.15,5,5,0,0,1-2.48-4.33,4.39,4.39,0,0,1,.28-1.56,12.45,12.45,0,0,1,.55-1.2,5.09,5.09,0,0,1,2.94-2,4.63,4.63,0,0,1,1.11-.09,4.88,4.88,0,0,1,1.65.27,5.38,5.38,0,0,1,3.22,4.79Z"/></g><g id="Gruppe_19" data-name="Gruppe 19"><g id="Gruppe_18" data-name="Gruppe 18"><path id="Pfad_61" data-name="Pfad 61" d="M599.1,90.64c-1.29-1.94-2.49-4-4-5.89-1.1-1.48-2.85-4-4.69-4.33a1.11,1.11,0,0,0-1.2.92c-.09,1.93,2.12,4.14,3.31,5.43,1.57,1.75,3.32,3.31,5,5.06a1,1,0,0,0,1.57-1.19Z"/></g><path id="Pfad_62" data-name="Pfad 62" d="M595.32,94.31a4.84,4.84,0,1,1,6.81.65h0a4.74,4.74,0,0,1-6.69-.51h0Z"/></g><g id="Gruppe_21" data-name="Gruppe 21"><g id="Gruppe_20" data-name="Gruppe 20"><path id="Pfad_63" data-name="Pfad 63" d="M613.08,65.42c-2.3-.65-4.5-1.47-6.81-2-1.74-.46-4.78-1.28-6.35-.27a1,1,0,0,0-.3,1.44l0,0c1.19,1.47,4.23,1.84,6.07,2,2.3.37,4.69.46,7.09.65a.93.93,0,0,0,.27-1.84Z"/></g><path id="Pfad_64" data-name="Pfad 64" d="M613.08,70.94a4.88,4.88,0,1,1,5.71-3.88h0A4.92,4.92,0,0,1,613.08,70.94Z"/></g><g id="Gruppe_23" data-name="Gruppe 23"><g id="Gruppe_22" data-name="Gruppe 22"><path id="Pfad_65" data-name="Pfad 65" d="M607.56,37.07c-2.11.92-4.41,1.75-6.53,2.85-1.56.83-4.42,2.12-5.06,3.87a1,1,0,0,0,.66,1.27l.07,0c1.85.37,4.42-1.38,6-2.3,2-1.29,3.86-2.67,5.79-4.05a.95.95,0,0,0-.92-1.66Z"/></g><path id="Pfad_66" data-name="Pfad 66" d="M611.7,41.59A4.86,4.86,0,1,1,613.55,35h0A4.92,4.92,0,0,1,611.7,41.59Z"/></g><path id="Pfad_67" data-name="Pfad 67" class="cls-2" d="M613.64,58.7a24.73,24.73,0,0,1-.1,2.58c-.09,1.38-.28,2.76-.46,4.14a12.76,12.76,0,0,1-.37,1.84,17.7,17.7,0,0,1-.83,3.22,44.14,44.14,0,0,1-2.76,6.9,24.31,24.31,0,0,1-1.93,3.41A36.13,36.13,0,0,1,602,87.32c-1,1-2,2-3.13,3a9.54,9.54,0,0,1-1.57,1.19c-.82.65-1.74,1.29-2.67,1.94a42.08,42.08,0,0,1-6.35,3.4,24.34,24.34,0,0,1-3.68,1.38,42.93,42.93,0,0,1-9.11,1.84c-1.11.09-2.21.19-3.41.19H570c-1.29-.1-2.58-.19-3.87-.37a36.32,36.32,0,0,1-6.35-1.38c-1.29-.37-2.48-.83-3.68-1.29a40.44,40.44,0,0,1-7.82-4.23,31.56,31.56,0,0,1-2.76-2.12c-.56-.46-1.11-.92-1.57-1.38q-1.44-1.31-2.76-2.76a44.74,44.74,0,0,1-4.05-5.25c-.73-1.1-1.38-2.21-2-3.4a38,38,0,0,1-3.31-8.56,27.55,27.55,0,0,1-.65-2.76c-.1-.74-.28-1.38-.37-2.12a38.38,38.38,0,0,1-.37-4.41V58.61a45.85,45.85,0,0,1,.28-5c.18-1.29.37-2.58.64-3.86A41,41,0,0,1,534.3,41l1.1-2.2c.37-.65.65-1.2,1-1.85a29.07,29.07,0,0,1,2.66-3.86,46.46,46.46,0,0,1,4.42-4.88,27.54,27.54,0,0,1,3-2.57,47,47,0,0,1,7.73-4.79c.73-.37,1.47-.64,2.3-1,.64-.28,1.29-.46,1.93-.74a42.2,42.2,0,0,1,4.42-1.29,34.08,34.08,0,0,1,6.9-.92,17.69,17.69,0,0,1,2.3-.09h1.66a40.34,40.34,0,0,1,5.89.64c.92.18,1.84.37,2.76.64s1.93.56,2.85.83a14.88,14.88,0,0,1,1.84.65c1.29.55,2.58,1.1,3.87,1.74a38.61,38.61,0,0,1,6.16,3.87l3,2.48a39.23,39.23,0,0,1,5.61,6.26,24.74,24.74,0,0,1,2,3c.27.55.64,1.1.92,1.65.64,1.11,1.1,2.21,1.66,3.41a37.53,37.53,0,0,1,2.3,7.08c.27,1.29.55,2.58.73,3.87C613.54,54.93,613.64,56.77,613.64,58.7Z"/><g id="Gruppe_25" data-name="Gruppe 25"><g id="Gruppe_24" data-name="Gruppe 24"><path id="Pfad_68" data-name="Pfad 68" class="cls-2" d="M572.59,24.37a1.27,1.27,0,0,1-1.74,0c-1-1.1-1.2-3.13-1.2-5,0-.83.09-1.65.09-2.3v-.18c.1-1.2.19-2.4.28-3.69l.55-4.78a1.15,1.15,0,0,1,2.3,0l.56,5c.09,1.1.18,2.3.27,3.4V17c0,.46.1.92.1,1.47C573.79,20.6,573.7,23.09,572.59,24.37Z"/></g><path id="Pfad_69" data-name="Pfad 69" class="cls-2" d="M577.84,7.81a5.72,5.72,0,0,1-4.51,5.61,6.18,6.18,0,0,1-1.29.19,5,5,0,0,1-2-.37,5.8,5.8,0,1,1,7.82-5.43Z"/></g><g id="Gruppe_27" data-name="Gruppe 27"><g id="Gruppe_26" data-name="Gruppe 26"><path id="Pfad_70" data-name="Pfad 70" class="cls-2" d="M550.42,32.11a1.26,1.26,0,0,1-1.38,1.1h0a4.29,4.29,0,0,1-2.12-1.1,26,26,0,0,1-3.4-3.87c0-.1-.1-.1-.1-.18-.74-1-1.47-1.94-2.12-2.95-.92-1.29-1.74-2.67-2.67-4a1.15,1.15,0,0,1,1.75-1.47c1.19,1.2,2.39,2.3,3.59,3.5a31.1,31.1,0,0,1,2.39,2.48l.09.1a22.38,22.38,0,0,1,3.13,3.87A4.48,4.48,0,0,1,550.42,32.11Z"/></g><path id="Pfad_71" data-name="Pfad 71" class="cls-2" d="M544,23.18a4.46,4.46,0,0,1-.92.92,4.76,4.76,0,0,1-1.74,1,5.82,5.82,0,1,1,2.48-9.2A5.93,5.93,0,0,1,544,23.18Z"/></g><g id="Gruppe_29" data-name="Gruppe 29"><g id="Gruppe_28" data-name="Gruppe 28"><path id="Pfad_72" data-name="Pfad 72" class="cls-2" d="M538.08,53.91a4.3,4.3,0,0,1-2.48.56,25.92,25.92,0,0,1-4.88-.74c-.09,0-.09,0-.18-.09-1.2-.28-2.39-.55-3.5-.92l-4.6-1.38a1.12,1.12,0,0,1,.37-2.21l5,.28,3.4.27h.19a26,26,0,0,1,4.87.92A4.66,4.66,0,0,1,538.46,52C538.73,52.72,538.64,53.64,538.08,53.91Z"/></g><path id="Pfad_73" data-name="Pfad 73" class="cls-2" d="M527.59,50.88a4.77,4.77,0,0,1-.73,1.93,5.74,5.74,0,1,1,.83-3.22A3.31,3.31,0,0,1,527.59,50.88Z"/></g><g id="Gruppe_31" data-name="Gruppe 31"><g id="Gruppe_30" data-name="Gruppe 30"><path id="Pfad_74" data-name="Pfad 74" class="cls-2" d="M543,76.92a4.3,4.3,0,0,1-1.2,1.75,18.93,18.93,0,0,1-4.6,2.85c-.09,0-.09.09-.18.09-1.1.55-2.21,1.11-3.31,1.57l-4.42,1.93a1.11,1.11,0,0,1-1.11-1.93c1.38-.92,2.67-1.93,4.05-3A33.94,33.94,0,0,1,535,78.3l.1-.1a21.66,21.66,0,0,1,4.79-2.57,3.4,3.4,0,0,1,2.11-.19,1.17,1.17,0,0,1,1,1.33h0A.83.83,0,0,1,543,76.92Z"/></g><path id="Pfad_75" data-name="Pfad 75" class="cls-2" d="M530.91,89.16a5.8,5.8,0,1,1,1.28-9,5.57,5.57,0,0,1,.83,1.1,8.37,8.37,0,0,1,.74,1.93A6,6,0,0,1,530.91,89.16Z"/></g><g id="Gruppe_33" data-name="Gruppe 33"><g id="Gruppe_32" data-name="Gruppe 32"><path id="Pfad_76" data-name="Pfad 76" class="cls-2" d="M561,96.07a12.24,12.24,0,0,1-1,2.39c0,.09-.1.09-.1.18-.46,1.11-1,2.21-1.57,3.31-.73,1.48-1.47,2.86-2.11,4.33a1.12,1.12,0,0,1-2.12-.74c.37-1.56.74-3.22,1.2-4.87.27-1.11.55-2.21.92-3.32,0-.09,0-.09.09-.18.32-1.09.69-2.17,1.11-3.22a6.64,6.64,0,0,1,2.39-3.31,1.27,1.27,0,0,1,1.66.64C562,92.66,561.55,94.41,561,96.07Z"/></g><path id="Pfad_77" data-name="Pfad 77" class="cls-2" d="M560.07,108.49a5.82,5.82,0,1,1-4.78-7.73l1.29.27a5.51,5.51,0,0,1,1.74,1A5.83,5.83,0,0,1,560.07,108.49Z"/></g><g id="Gruppe_35" data-name="Gruppe 35"><g id="Gruppe_34" data-name="Gruppe 34"><path id="Pfad_78" data-name="Pfad 78" class="cls-2" d="M590.54,105.36c-.74-2.76-1.29-5.53-2.12-8.19-.64-2-1.56-5.62-3.59-6.72a1.27,1.27,0,0,0-1.65.64c-.83,2.12.73,5.43,1.56,7.46,1.11,2.57,2.49,5.06,3.69,7.64a1.14,1.14,0,0,0,2.11-.83Z"/></g><path id="Pfad_79" data-name="Pfad 79" class="cls-2" d="M583.91,108.49a5.82,5.82,0,1,1,7.46,3.49h0A5.88,5.88,0,0,1,583.91,108.49Z"/></g><g id="Gruppe_37" data-name="Gruppe 37"><g id="Gruppe_36" data-name="Gruppe 36"><path id="Pfad_80" data-name="Pfad 80" class="cls-2" d="M616.21,82.44c-2.3-1.65-4.51-3.4-6.9-4.87-1.84-1.2-4.78-3.32-7.08-2.86a1.3,1.3,0,0,0-.93,1.57c.74,2.11,4.05,3.68,6,4.69,2.48,1.29,5.15,2.3,7.73,3.5a1.18,1.18,0,0,0,1.19-2Z"/></g><path id="Pfad_81" data-name="Pfad 81" class="cls-2" d="M613.18,89.16A5.79,5.79,0,1,1,621.09,87h0A5.82,5.82,0,0,1,613.18,89.16Z"/></g><g id="Gruppe_39" data-name="Gruppe 39"><g id="Gruppe_38" data-name="Gruppe 38"><path id="Pfad_82" data-name="Pfad 82" class="cls-2" d="M621.18,48.49c-2.76.18-5.61.27-8.37.64-2.12.28-5.8.55-7.18,2.39a1.3,1.3,0,0,0,.28,1.75c1.93,1.19,5.52.18,7.54-.28,2.76-.64,5.43-1.56,8.1-2.3a1.12,1.12,0,0,0-.37-2.21Z"/></g><path id="Pfad_83" data-name="Pfad 83" class="cls-2" d="M623.12,55.57a5.8,5.8,0,1,1,4.69-6.72h0A5.82,5.82,0,0,1,623.12,55.57Z"/></g><g id="Gruppe_41" data-name="Gruppe 41"><g id="Gruppe_40" data-name="Gruppe 40"><path id="Pfad_84" data-name="Pfad 84" class="cls-2" d="M603.15,19.31c-2,1.94-4.15,3.87-6.08,5.89-1.47,1.57-4.05,4.14-4.05,6.45a1.26,1.26,0,0,0,1.38,1.1h0c2.21-.37,4.33-3.4,5.61-5.06,1.66-2.21,3.22-4.69,4.79-7a1.08,1.08,0,0,0-1.62-1.42Z"/></g><path id="Pfad_85" data-name="Pfad 85" class="cls-2" d="M609.13,23.46a5.82,5.82,0,1,1-.74-8.19h0a5.73,5.73,0,0,1,.83,8.07h0Z"/></g><path id="Pfad_86" data-name="Pfad 86" class="cls-14" d="M576.46,40.57a7.37,7.37,0,1,1-7.38-7.36h0a7.37,7.37,0,0,1,7.37,7.36Z"/><path id="Pfad_87" data-name="Pfad 87" class="cls-14" d="M559.89,53.91a4.79,4.79,0,0,1-9.57.08h0v-.08a4.79,4.79,0,0,1,9.57,0Z"/><circle id="Ellipse_1" data-name="Ellipse 1" class="cls-14" cx="587.69" cy="66.86" r="11.23"/></g></g><text class="cls-3" transform="translate(669.92 51.82)">c<tspan class="cls-15" x="9.43" y="0">o</tspan><tspan x="18.94" y="0">vid</tspan><tspan class="cls-8" x="41.87" y="0">.</tspan><tspan x="46.15" y="0">d</tspan><tspan class="cls-15" x="56.34" y="0">n</tspan><tspan x="65.86" y="0">vi</tspan><tspan class="cls-16" x="78.61" y="0">e.</tspan><tspan x="91.71" y="0">com</tspan></text><text class="cls-9" transform="translate(669.92 72.82)"><tspan class="cls-17">W</tspan><tspan x="15.84" y="0">orldwide C</tspan><tspan class="cls-18" x="98.33" y="0">o</tspan><tspan class="cls-7" x="107.47" y="0">ViD</tspan><tspan class="cls-19" x="133.6" y="0">-</tspan><tspan x="140.98" y="0">19 </tspan><tspan class="cls-6" x="161.75" y="0">S</tspan><tspan class="cls-20" x="171.77" y="0">t</tspan><tspan class="cls-21" x="178.09" y="0">a</tspan><tspan x="186.95" y="0">ti</tspan><tspan class="cls-22" x="197.26" y="0">s</tspan><tspan x="205.08" y="0">ti</tspan><tspan class="cls-23" x="215.4" y="0">c</tspan><tspan class="cls-12" x="224.62" y="0">s</tspan></text></g><g id="weather"><rect class="cls-1" y="195" width="398" height="114"/><path class="cls-2" d="M128.84,264.1A22.15,22.15,0,0,1,107,284.73H30.73A22.16,22.16,0,0,1,25.84,241a15.08,15.08,0,0,1,22.53-15.66,33.56,33.56,0,0,1,59.88,15.16A22.15,22.15,0,0,1,128.84,264.1Z"/><text class="cls-3" transform="translate(168.92 243.03)"><tspan class="cls-10">w</tspan><tspan class="cls-6" x="12.85" y="0">e</tspan><tspan class="cls-24" x="22.15" y="0">a</tspan><tspan class="cls-25" x="30.87" y="0">t</tspan><tspan class="cls-7" x="38.42" y="0">he</tspan><tspan class="cls-26" x="57.78" y="0">r</tspan><tspan class="cls-8" x="63.02" y="0">.</tspan><tspan x="67.3" y="0">d</tspan><tspan class="cls-15" x="77.49" y="0">n</tspan><tspan x="87.01" y="0">vi</tspan><tspan class="cls-8" x="99.75" y="0">e.</tspan><tspan x="112.86" y="0">com</tspan></text><text class="cls-9" transform="translate(168.92 264.03)"><tspan class="cls-27">C</tspan><tspan x="12.12" y="0">ur</tspan><tspan class="cls-28" x="28.15" y="0">r</tspan><tspan x="34.12" y="0">e</tspan><tspan class="cls-29" x="43.5" y="0">n</tspan><tspan x="52.9" y="0">t </tspan><tspan class="cls-17" x="63.39" y="0">W</tspan><tspan class="cls-30" x="79.24" y="0">e</tspan><tspan class="cls-23" x="88.55" y="0">a</tspan><tspan class="cls-31" x="97.41" y="0">t</tspan><tspan x="104.21" y="0">her I</tspan><tspan class="cls-32" x="137.8" y="0">n</tspan><tspan class="cls-33" x="147.25" y="0">f</tspan><tspan class="cls-7" x="153.36" y="0">or</tspan><tspan class="cls-22" x="169.62" y="0">m</tspan><tspan class="cls-23" x="184.36" y="0">a</tspan><tspan x="193.22" y="0">tion</tspan></text></g><g id="github"><rect class="cls-1" x="511" y="195" width="418" height="114"/><path id="GitHub-2" data-name="GitHub" class="cls-34" d="M573.3,203.81A45.77,45.77,0,0,0,558.72,293c2.24.28,3.08-1.12,3.08-2.24v-7.85c-12.61,2.81-15.41-6.17-15.41-6.17-2-5.32-5-6.72-5-6.72-4.2-2.81.28-2.81.28-2.81,4.49.28,7,4.77,7,4.77,4.21,7,10.66,5,13.18,3.92a9.8,9.8,0,0,1,2.8-6.17c-10.09-1.12-20.74-5-20.74-22.7a17.4,17.4,0,0,1,4.76-12.34,16.59,16.59,0,0,1,.56-11.77s3.93-1.12,12.62,4.76a39.44,39.44,0,0,1,11.49-1.4,52.43,52.43,0,0,1,11.5,1.4c8.69-5.88,12.61-4.76,12.61-4.76a17.53,17.53,0,0,1,.56,12,18.13,18.13,0,0,1,4.77,12.34c0,17.66-10.66,21.3-20.75,22.42,1.68,1.4,3.08,4.21,3.08,8.41v12.62c0,1.12.85,2.52,3.09,2.24a45.78,45.78,0,0,0-14.86-89.14Z"/><text class="cls-3" transform="translate(669.92 243.03)">gi<tspan class="cls-25" x="14.43" y="0">t</tspan><tspan class="cls-23" x="21.98" y="0">h</tspan><tspan x="31.93" y="0">u</tspan><tspan class="cls-8" x="41.84" y="0">b.</tspan><tspan class="cls-12" x="55.79" y="0">com</tspan><tspan class="cls-35" x="90.22" y="0">/</tspan><tspan class="cls-12" x="96.27" y="0">d</tspan><tspan class="cls-36" x="106.45" y="0">n</tspan><tspan x="115.97" y="0">vie</tspan></text><text class="cls-9" transform="translate(669.92 264.03)">Mo<tspan class="cls-10" x="24.29" y="0">r</tspan><tspan x="30.26" y="0">e </tspan><tspan class="cls-37" x="43.55" y="0">c</tspan><tspan class="cls-12" x="52.78" y="0">an be </tspan><tspan class="cls-38" x="98.8" y="0">f</tspan><tspan x="104.91" y="0">ound on </tspan><tspan class="cls-39" x="171.88" y="0">m</tspan><tspan x="186.44" y="0">y GitHub</tspan></text></g></g></g></svg>