<svg xmlns="http://www.w3.org/2000/svg" width="54.55" height="33.223" viewBox="0 0 54.55 33.223"><path d="M31.9-1.564V-1.84h4.475L17.712-34.509h-2.36v-.275H25.1v.275h-2.36L41.156-2.177v-29.7a2.648,2.648,0,0,0-.766-1.839,2.722,2.722,0,0,0-1.87-.767h-.275a.145.145,0,0,1-.153-.153.145.145,0,0,1,.153-.153h6.1c.092,0,.122.061.122.153a.145.145,0,0,1-.153.153h-.275a2.518,2.518,0,0,0-1.839.767,2.59,2.59,0,0,0-.767,1.839V-1.84h4.75v.275ZM9.222-2.422c.062-.031.154-.061.215-.092.092-.031.184-.092.275-.122.184-.093.338-.154.491-.246.092-.061.184-.092.276-.153.061-.031.153-.092.214-.122.122-.092.245-.154.368-.246a7.785,7.785,0,0,0,1.379-1.1,9.423,9.423,0,0,0,1.992-2.941,8.976,8.976,0,0,0,.735-3.617l-.061-14.158a10.55,10.55,0,0,0-.4-3.1,9.6,9.6,0,0,0-1.073-2.329,6.567,6.567,0,0,0-1.5-1.655,10.357,10.357,0,0,0-1.685-1.073,11.564,11.564,0,0,0-4.6-1.134H1.285v21.636A2.512,2.512,0,0,1-1.2-10.39a2.492,2.492,0,0,1-2.482-2.483V-34.478a6.117,6.117,0,0,0-4.474,1.625c-.062-.061-.154-.122-.215-.184a6.56,6.56,0,0,1,4.75-1.747h9.5A11.85,11.85,0,0,1,11.8-33.313a14.3,14.3,0,0,1,4.5,3.831,18.348,18.348,0,0,1,2.85,5.363,19.363,19.363,0,0,1,.981,5.976,19.459,19.459,0,0,1-.981,6.037,13.006,13.006,0,0,1-.7,1.808A16.964,16.964,0,0,1,16.3-6.8,15.361,15.361,0,0,1,11.8-3a12.554,12.554,0,0,1-5.578,1.44A14.527,14.527,0,0,0,9.222-2.422ZM-3.649-4.169A2.482,2.482,0,0,1-1.166-6.651,2.482,2.482,0,0,1,1.316-4.169,2.482,2.482,0,0,1-1.166-1.687,2.482,2.482,0,0,1-3.649-4.169Z" transform="translate(8.368 34.788)" fill="#092a51"/></svg>