<svg xmlns="http://www.w3.org/2000/svg" width="54.55" height="33.224" viewBox="0 0 54.55 33.224">
  <g id="Gruppe_6" data-name="Gruppe 6" transform="translate(0 0.012)" style="isolation: isolate">
    <circle id="Ellipse_4" data-name="Ellipse 4" cx="2.482" cy="2.482" r="2.482" transform="translate(4.719 28.125)" fill="#049760"/>
    <path id="Pfad_2019" data-name="Pfad 2019" d="M24.67,5.294a14.3,14.3,0,0,0-4.5-3.831A11.844,11.844,0,0,0,14.25-.008H4.75A6.56,6.56,0,0,0,0,1.739c.061.061.153.123.215.184A6.12,6.12,0,0,1,4.689.3V21.9a2.482,2.482,0,1,0,4.965,0V.268H14.22a11.545,11.545,0,0,1,4.6,1.134A10.307,10.307,0,0,1,20.5,2.474,6.555,6.555,0,0,1,22,4.129a9.6,9.6,0,0,1,1.073,2.329,10.538,10.538,0,0,1,.4,3.1l.061,14.158a8.978,8.978,0,0,1-.735,3.616,9.414,9.414,0,0,1-1.992,2.942,7.782,7.782,0,0,1-1.379,1.1c-.123.092-.245.153-.368.245-.061.031-.153.092-.215.123-.092.061-.184.092-.276.153-.153.092-.306.153-.49.245-.092.031-.184.092-.276.123-.061.031-.153.061-.215.092h0a14.577,14.577,0,0,1-3,.858,12.548,12.548,0,0,0,5.578-1.44,15.353,15.353,0,0,0,4.5-3.8,16.975,16.975,0,0,0,2.145-3.494,12.988,12.988,0,0,0,.7-1.808,19.452,19.452,0,0,0,.981-6.037,19.365,19.365,0,0,0-.981-5.976A18.364,18.364,0,0,0,24.67,5.294Z" transform="translate(0 0)" fill="#049760"/>
    <path id="Pfad_2020" data-name="Pfad 2020" d="M103.48,32.944V2.911a2.591,2.591,0,0,1,.766-1.839,2.521,2.521,0,0,1,1.839-.766h.276a.145.145,0,0,0,.153-.153c0-.092-.031-.153-.123-.153h-6.1a.145.145,0,0,0-.153.153.145.145,0,0,0,.153.153h.276a2.721,2.721,0,0,1,1.869.766,2.647,2.647,0,0,1,.766,1.839v29.7L84.786.276h2.36V0H77.4V.276h2.36L98.423,32.944H93.949v.276H108.23v-.276Z" transform="translate(-53.68 -0.008)" fill="#049760"/>
  </g>
</svg>
