<svg width="477" height="339" viewBox="0 0 477 339" fill="none" xmlns="http://www.w3.org/2000/svg">
<mask id="mask0_315_72" style="mask-type:alpha" maskUnits="userSpaceOnUse" x="0" y="0" width="252" height="339">
<path d="M251.197 169.249C251.202 188.293 248.265 207.231 242.485 225.434C241.937 227.14 241.366 228.823 240.795 230.529C238.63 236.803 236.119 242.96 233.273 248.974C227.294 261.699 219.732 273.669 210.755 284.617C197.812 300.506 181.693 313.703 163.362 323.419C154.914 327.938 145.93 331.445 136.607 333.863C126.979 336.405 117.086 337.89 107.115 338.29H9.52135C6.99613 338.29 4.57434 337.318 2.78875 335.588C1.00315 333.859 1.30465e-05 331.513 1.30465e-05 329.067V9.22221C-0.00401242 6.86551 0.92363 4.59675 2.59248 2.88174C4.26132 1.16673 6.54473 0.135618 8.97387 0.000111649H100.831C112.954 -0.0151562 125.026 1.53553 136.726 4.61116C145.997 6.98474 154.934 10.4456 163.339 14.9168C181.715 24.6862 197.847 37.9741 210.755 53.9724C223.937 70.2844 234.101 88.6858 240.795 108.36C241.318 109.904 241.842 111.426 242.318 112.971C248.185 131.19 251.178 150.163 251.197 169.249Z" fill="url(#paint0_linear_315_72)"/>
</mask>
<g mask="url(#mask0_315_72)">
<rect x="-4.97559" y="-0.000488281" width="267.062" height="112.465" fill="#FF4040"/>
<rect x="-4.97559" y="225.732" width="267.062" height="112.465" fill="#FF4040"/>
<rect x="-4.97559" y="112.464" width="267.062" height="113.268" fill="white"/>
</g>
<path d="M476.066 7.00463V331.092C476.07 332.131 475.861 333.161 475.451 334.122C475.042 335.083 474.441 335.956 473.682 336.691C472.923 337.426 472.022 338.008 471.03 338.404C470.038 338.801 468.975 339.003 467.902 339H454.453H404.656C403.9 339.002 403.156 338.814 402.497 338.454C401.838 338.094 401.286 337.576 400.896 336.948L400.419 336.141L254.243 89.3579L203.471 3.5694L201.852 1.07944C201.827 1.0578 201.806 1.03119 201.793 1.00138C201.779 0.971566 201.771 0.939231 201.771 0.906521C201.771 0.873811 201.779 0.841476 201.793 0.811663C201.806 0.78185 201.827 0.755242 201.852 0.733607H201.995H276.714C279.956 0.709876 283.148 1.51342 285.969 3.06346C288.789 4.61349 291.139 6.85539 292.781 9.56376L397.754 184.576C398 185.046 398.406 185.419 398.903 185.634C399.4 185.849 399.957 185.893 400.483 185.758C401.009 185.624 401.472 185.318 401.794 184.893C402.116 184.469 402.277 183.95 402.252 183.423V6.8663C402.259 5.20712 402.944 3.61798 404.157 2.44691C405.371 1.27585 407.014 0.61832 408.727 0.618331H469.425C470.293 0.612256 471.154 0.772195 471.958 1.08897C472.762 1.40575 473.493 1.87314 474.11 2.46432C474.727 3.05551 475.218 3.75886 475.553 4.53404C475.889 5.30921 476.063 6.14096 476.066 6.98157V7.00463Z" fill="#4F4F4F"/>
<defs>
<linearGradient id="paint0_linear_315_72" x1="125.598" y1="0" x2="125.598" y2="338.29" gradientUnits="userSpaceOnUse">
<stop stop-color="#2B7FFF"/>
<stop offset="1" stop-color="#0048B5"/>
</linearGradient>
</defs>
</svg>
